<?xml version="1.0" encoding="UTF-8" standalone="no"?>
<!-- Created with Inkscape (http://www.inkscape.org/) -->

<svg
   version="1.1"
   id="svg2"
   width="4800"
   height="3193.3333"
   viewBox="0 0 4800 3193.3333"
   sodipodi:docname="2_hood_petridish_Layering.svg"
   inkscape:version="1.1 (ce6663b3b7, 2021-05-25)"
   inkscape:export-filename="/media/fabien/F6166FAF166F7013/0_POP/5_DictyPetri/2_PLAN2.png"
   inkscape:export-xdpi="100"
   inkscape:export-ydpi="100"
   xmlns:inkscape="http://www.inkscape.org/namespaces/inkscape"
   xmlns:sodipodi="http://sodipodi.sourceforge.net/DTD/sodipodi-0.dtd"
   xmlns:xlink="http://www.w3.org/1999/xlink"
   xmlns="http://www.w3.org/2000/svg"
   xmlns:svg="http://www.w3.org/2000/svg"
   xmlns:rdf="http://www.w3.org/1999/02/22-rdf-syntax-ns#"
   xmlns:cc="http://creativecommons.org/ns#"
   xmlns:dc="http://purl.org/dc/elements/1.1/">
  <metadata
     id="metadata8">
    <rdf:RDF>
      <cc:Work
         rdf:about="">
        <dc:format>image/svg+xml</dc:format>
        <dc:type
           rdf:resource="http://purl.org/dc/dcmitype/StillImage" />
      </cc:Work>
    </rdf:RDF>
  </metadata>
  <defs
     id="defs6">
    <linearGradient
       inkscape:collect="always"
       id="linearGradient5080">
      <stop
         style="stop-color:#ddc991;stop-opacity:1;"
         offset="0"
         id="stop5076" />
      <stop
         style="stop-color:#aaa089;stop-opacity:1"
         offset="1"
         id="stop5078" />
    </linearGradient>
    <linearGradient
       inkscape:collect="always"
       id="linearGradient4986">
      <stop
         style="stop-color:#f8de68;stop-opacity:1"
         offset="0"
         id="stop4982" />
      <stop
         id="stop4990"
         offset="0.39496806"
         style="stop-color:#ffe677;stop-opacity:1" />
      <stop
         style="stop-color:#f9df6d;stop-opacity:1"
         offset="1"
         id="stop4984" />
    </linearGradient>
    <linearGradient
       inkscape:collect="always"
       id="linearGradient5542">
      <stop
         style="stop-color:#b4a15e;stop-opacity:1;"
         offset="0"
         id="stop5538" />
      <stop
         style="stop-color:#b4a15e;stop-opacity:0;"
         offset="1"
         id="stop5540" />
    </linearGradient>
    <linearGradient
       inkscape:collect="always"
       id="linearGradient5534">
      <stop
         style="stop-color:#b4a15e;stop-opacity:1;"
         offset="0"
         id="stop5530" />
      <stop
         style="stop-color:#b4a15e;stop-opacity:0;"
         offset="1"
         id="stop5532" />
    </linearGradient>
    <linearGradient
       inkscape:collect="always"
       id="linearGradient5421">
      <stop
         style="stop-color:#74765e;stop-opacity:1;"
         offset="0"
         id="stop5417" />
      <stop
         id="stop5425"
         offset="0.1321135"
         style="stop-color:#8a8c6f;stop-opacity:1" />
      <stop
         style="stop-color:#9fa189;stop-opacity:1"
         offset="0.33905607"
         id="stop5427" />
      <stop
         id="stop5429"
         offset="0.57643783"
         style="stop-color:#73755e;stop-opacity:1" />
      <stop
         style="stop-color:#8c8e71;stop-opacity:1"
         offset="0.77905691"
         id="stop5431" />
      <stop
         style="stop-color:#000000;stop-opacity:0"
         offset="1"
         id="stop5419" />
    </linearGradient>
    <linearGradient
       inkscape:collect="always"
       id="linearGradient5407">
      <stop
         style="stop-color:#60583e;stop-opacity:1"
         offset="0"
         id="stop5403" />
      <stop
         id="stop5411"
         offset="0.20919375"
         style="stop-color:#857c65;stop-opacity:1" />
      <stop
         style="stop-color:#ab9f80;stop-opacity:1"
         offset="0.3592234"
         id="stop5413" />
      <stop
         id="stop5415"
         offset="0.61825699"
         style="stop-color:#7b6f52;stop-opacity:1" />
      <stop
         style="stop-color:#555249;stop-opacity:1"
         offset="1"
         id="stop5405" />
    </linearGradient>
    <linearGradient
       inkscape:collect="always"
       xlink:href="#linearGradient5407"
       id="linearGradient5409"
       x1="4336.7085"
       y1="2550.6074"
       x2="-838.92645"
       y2="3646.624"
       gradientUnits="userSpaceOnUse" />
    <linearGradient
       inkscape:collect="always"
       xlink:href="#linearGradient5421"
       id="linearGradient5423"
       x1="-74.420921"
       y1="13.531043"
       x2="6291.9492"
       y2="317.98022"
       gradientUnits="userSpaceOnUse" />
    <linearGradient
       inkscape:collect="always"
       xlink:href="#linearGradient5534"
       id="linearGradient5536"
       x1="1156.3717"
       y1="2231.9031"
       x2="1157.0193"
       y2="2258.7803"
       gradientUnits="userSpaceOnUse" />
    <linearGradient
       inkscape:collect="always"
       xlink:href="#linearGradient5542"
       id="linearGradient5544"
       x1="-1487.3187"
       y1="2165.1956"
       x2="-1486.9949"
       y2="2188.5107"
       gradientUnits="userSpaceOnUse" />
    <linearGradient
       inkscape:collect="always"
       xlink:href="#linearGradient4986"
       id="linearGradient4988"
       x1="21.981833"
       y1="1423.796"
       x2="725.40033"
       y2="2185.8328"
       gradientUnits="userSpaceOnUse" />
    <filter
       inkscape:collect="always"
       style="color-interpolation-filters:sRGB"
       id="filter5008"
       x="-0.010501352"
       width="1.0210027"
       y="-0.013997598"
       height="1.0279952">
      <feGaussianBlur
         inkscape:collect="always"
         stdDeviation="1.7978011"
         id="feGaussianBlur5010" />
    </filter>
    <filter
       inkscape:collect="always"
       style="color-interpolation-filters:sRGB"
       id="filter5036"
       x="-0.21804911"
       width="1.4360982"
       y="-0.17221377"
       height="1.3444275">
      <feGaussianBlur
         inkscape:collect="always"
         stdDeviation="6.0117884"
         id="feGaussianBlur5038" />
    </filter>
    <filter
       inkscape:collect="always"
       style="color-interpolation-filters:sRGB"
       id="filter5040"
       x="-0.14655852"
       width="1.293117"
       y="-0.048465993"
       height="1.096932">
      <feGaussianBlur
         inkscape:collect="always"
         stdDeviation="6.0117884"
         id="feGaussianBlur5042" />
    </filter>
    <filter
       inkscape:collect="always"
       style="color-interpolation-filters:sRGB"
       id="filter5044"
       x="-0.39946131"
       width="1.7989226"
       y="-0.10277648"
       height="1.205553">
      <feGaussianBlur
         inkscape:collect="always"
         stdDeviation="6.0117884"
         id="feGaussianBlur5046" />
    </filter>
    <filter
       inkscape:collect="always"
       style="color-interpolation-filters:sRGB"
       id="filter5048"
       x="-0.35431232"
       width="1.7086246"
       y="-0.14859831"
       height="1.2971966">
      <feGaussianBlur
         inkscape:collect="always"
         stdDeviation="6.0117884"
         id="feGaussianBlur5050" />
    </filter>
    <filter
       inkscape:collect="always"
       style="color-interpolation-filters:sRGB"
       id="filter5052"
       x="-0.049552738"
       width="1.0991055"
       y="-0.051700449"
       height="1.1034009">
      <feGaussianBlur
         inkscape:collect="always"
         stdDeviation="6.0117884"
         id="feGaussianBlur5054" />
    </filter>
    <linearGradient
       inkscape:collect="always"
       xlink:href="#linearGradient5080"
       id="linearGradient5082"
       x1="1089.0579"
       y1="1169.6593"
       x2="1045.2477"
       y2="1168.7743"
       gradientUnits="userSpaceOnUse" />
  </defs>
  <sodipodi:namedview
     pagecolor="#ffffff"
     bordercolor="#666666"
     borderopacity="1"
     objecttolerance="10"
     gridtolerance="10"
     guidetolerance="10"
     inkscape:pageopacity="0"
     inkscape:pageshadow="2"
     inkscape:window-width="1856"
     inkscape:window-height="1016"
     id="namedview4"
     showgrid="false"
     inkscape:zoom="0.19973569"
     inkscape:cx="2668.5266"
     inkscape:cy="1639.6669"
     inkscape:window-x="64"
     inkscape:window-y="27"
     inkscape:window-maximized="1"
     inkscape:current-layer="layer2"
     showguides="false"
     inkscape:pagecheckerboard="0" />
  <g
     inkscape:groupmode="layer"
     id="layer2"
     inkscape:label="Plan 1"
     style="display:none">
    <g
       id="g5355">
      <path
         sodipodi:nodetypes="cccccc"
         inkscape:connector-curvature="0"
         id="path4806"
         d="m -192.81779,2049.9576 633.53965,-108.584 4734.91364,-811.529 13.531,-1664.32199 -5622.16084,94.71751 z"
         style="fill:url(#linearGradient5423);fill-opacity:1;stroke:none;stroke-width:5;stroke-linecap:butt;stroke-linejoin:miter;stroke-miterlimit:4;stroke-dasharray:none;stroke-opacity:1" />
      <path
         inkscape:connector-curvature="0"
         id="path4808"
         d="m -192.81779,2049.9576 -175.54688,1655.259 6470.87867,83.4839 -926.8785,-2658.8559 -5368.45329,920.113"
         style="fill:url(#linearGradient5409);fill-opacity:1;stroke:none;stroke-width:5;stroke-linecap:butt;stroke-linejoin:miter;stroke-miterlimit:4;stroke-dasharray:none;stroke-opacity:1" />
      <g
         id="g5555">
        <path
           style="fill:#47594d;fill-opacity:1;stroke:none;stroke-width:5;stroke-linecap:butt;stroke-linejoin:miter;stroke-miterlimit:4;stroke-dasharray:none;stroke-opacity:1"
           d="m 2297.6879,428.20623 651.3437,-58.95377 -19.5587,461.16675 -639.5039,70.27531 z"
           id="path4810"
           inkscape:connector-curvature="0"
           sodipodi:nodetypes="ccccc" />
        <path
           style="display:inline;fill:#667466;fill-opacity:1;stroke:none;stroke-width:5;stroke-linecap:butt;stroke-linejoin:miter;stroke-miterlimit:4;stroke-dasharray:none;stroke-opacity:1"
           d="m 2477.8778,466.82204 373.7959,-38.90184 -16.9139,311.21468 -368.7217,49.05014 z"
           id="path4812"
           inkscape:connector-curvature="0" />
        <path
           style="display:inline;fill:#44534e;fill-opacity:1;stroke:none;stroke-width:5;stroke-linecap:butt;stroke-linejoin:miter;stroke-miterlimit:4;stroke-dasharray:none;stroke-opacity:1"
           d="m 2435.5932,546.31709 -8.457,231.71963 c 1.3678,18.72129 30.7561,26.89089 32.4156,-3.5916 l 10.7639,-227.23794 c -3.5467,-39.19031 -33.0676,-32.46654 -34.7225,-0.89009 z"
           id="path4814"
           inkscape:connector-curvature="0"
           sodipodi:nodetypes="ccccc" />
        <path
           style="display:inline;fill:#455554;fill-opacity:1;stroke:none;stroke-width:5;stroke-linecap:butt;stroke-linejoin:miter;stroke-miterlimit:4;stroke-dasharray:none;stroke-opacity:1"
           d="m 2553.1444,597.90431 46.513,-3.38277 -11.8397,-16.06815 -49.0501,2.53708 z"
           id="path4818"
           inkscape:connector-curvature="0" />
        <path
           style="display:inline;fill:#45554a;fill-opacity:1;stroke:none;stroke-width:5;stroke-linecap:butt;stroke-linejoin:miter;stroke-miterlimit:4;stroke-dasharray:none;stroke-opacity:1"
           d="m 2553.1444,597.90431 -18.6053,118.39689 41.4389,-3.38277 23.6794,-118.39689 z"
           id="path4820"
           inkscape:connector-curvature="0" />
        <path
           style="display:inline;fill:#45564c;fill-opacity:1;stroke:none;stroke-width:5;stroke-linecap:butt;stroke-linejoin:miter;stroke-miterlimit:4;stroke-dasharray:none;stroke-opacity:1"
           d="m 2538.7676,580.99047 -4.2285,135.31073 18.6053,-118.39689 z"
           id="path4822"
           inkscape:connector-curvature="0" />
        <path
           style="display:inline;fill:#47574c;fill-opacity:1;stroke:none;stroke-width:5;stroke-linecap:butt;stroke-linejoin:miter;stroke-miterlimit:4;stroke-dasharray:none;stroke-opacity:1"
           d="m 2708.7517,513.3351 -6.7656,209.73164 54.9701,-8.45693 8.4569,-209.73163 z"
           id="path4824"
           inkscape:connector-curvature="0"
           sodipodi:nodetypes="ccccc" />
        <ellipse
           style="display:inline;opacity:1;fill:#303a32;fill-opacity:1;stroke:none;stroke-width:5;stroke-linejoin:miter;stroke-miterlimit:4;stroke-dasharray:none;stroke-dashoffset:0;stroke-opacity:1"
           id="path4826"
           cx="2737.4751"
           cy="552.04413"
           rx="12.800428"
           ry="13.586019" />
        <ellipse
           style="display:inline;opacity:1;fill:#303a32;fill-opacity:1;stroke:none;stroke-width:5;stroke-linejoin:miter;stroke-miterlimit:4;stroke-dasharray:none;stroke-dashoffset:0;stroke-opacity:1"
           id="path4826-7"
           cx="2734.0312"
           cy="670.39404"
           rx="12.800428"
           ry="13.586019" />
      </g>
      <path
         inkscape:connector-curvature="0"
         d="m 296.13344,1929.7864 80.52739,-11.2869 c 21.1195,-8.9069 16.1421,-30.313 1.7506,-32.7858 l -81.11099,10.212 c -24.0417,6.4551 -17.0693,33.8879 -1.167,33.8607 z m 75.05949,-76.7448 80.5274,-11.2868 c 21.1194,-8.907 16.1422,-30.3131 1.7505,-32.7859 l -81.1109,10.212 c -24.04169,6.4551 -17.06929,33.8879 -1.167,33.8607 z M -4.0733591,1984.7413 76.446841,1972.7181 c 21.1176,-9.488 16.1407,-32.2907 1.7504,-34.9248 l -81.1037001,10.8782 c -24.0395999,6.8763 -17.0677999,36.0988 -1.1669,36.0698 z m 151.0048991,-25.1003 80.5202,-12.0232 c 21.1177,-9.488 16.1408,-32.2907 1.7505,-34.9248 l -81.1037,10.8782 c -24.0397,6.8763 -17.0678,36.0988 -1.167,36.0698 z m 78.3907,-79.3496 80.5202,-12.0232 c 21.1177,-9.488 16.1408,-32.2907 1.7505,-34.9248 l -81.1037,10.8783 c -24.0397,6.8762 -17.0678,36.0987 -1.167,36.0697 z m -154.342799,22.6983 80.520199,-12.0232 c 21.1176,-9.4881 16.1408,-32.2907 1.7504,-34.9248 l -81.103699,10.8782 c -24.0396,6.8762 -17.0678,36.0988 -1.1669,36.0698 z m -144.0231,25.0737 82.5232999,-12.5578 c 21.6430001,-9.9099 16.5423001,-33.7265 1.7940001,-36.4777 l -83.1213,11.3619 c -24.6377,7.182 -17.4924,37.7039 -1.196,37.6736 z m 1441.966359,-172.3093 80.5274,-11.2869 c 21.1195,-8.9069 16.1421,-30.313 1.7506,-32.7858 l -81.111,10.212 c -24.0417,6.4551 -17.0693,33.8879 -1.167,33.8607 z m 75.0595,-76.7448 80.5274,-11.2868 c 21.1194,-8.907 16.1422,-30.3131 1.7505,-32.7859 l -81.1109,10.212 c -24.0417,6.4551 -17.0693,33.8879 -1.167,33.8607 z m -375.2663,131.6997 80.5202,-12.0232 c 21.1176,-9.488 16.1407,-32.2907 1.7504,-34.9248 l -81.1037,10.8782 c -24.0396,6.8763 -17.0678,36.0988 -1.1669,36.0698 z m 151.0049,-25.1003 80.5202,-12.0232 c 21.1177,-9.488 16.1408,-32.2907 1.7505,-34.9248 l -81.1037,10.8782 c -24.0397,6.8763 -17.0678,36.0988 -1.167,36.0698 z m 78.3907,-79.3496 80.5202,-12.0232 c 21.1177,-9.488 16.1408,-32.2907 1.7505,-34.9248 l -81.1037,10.8783 c -24.0397,6.8762 -17.0678,36.0987 -1.167,36.0697 z m -154.3428,22.6983 80.5202,-12.0232 c 21.1176,-9.4881 16.1408,-32.2907 1.7504,-34.9248 l -81.1037,10.8782 c -24.0396,6.8762 -17.0678,36.0988 -1.1669,36.0698 z m -379.12538,134.1679 82.5233,-12.5578 c 21.643,-9.9099 16.5423,-33.7265 1.794,-36.4777 l -83.1213,11.3619 c -24.6377,7.182 -17.4924,37.7039 -1.196,37.6736 z m 154.7615,-26.2164 82.52328,-12.5578 c 21.643,-9.9099 16.5423,-33.7265 1.794,-36.4777 l -83.12128,11.3619 c -24.6377,7.182 -17.4924,37.7039 -1.196,37.6736 z m 80.3408,-82.8778 82.52328,-12.5578 c 21.643,-9.9099 16.5423,-33.7265 1.794,-36.4777 l -83.1213,11.3619 c -24.63768,7.182 -17.49238,37.7039 -1.19598,37.6736 z m -158.1824,23.7075 82.5233,-12.5578 c 21.643,-9.9099 16.5423,-33.7265 1.794,-36.4777 l -83.1213,11.3619 c -24.6377,7.182 -17.4924,37.7039 -1.196,37.6736 z m -387.2888,138.2425 82.5233,-12.5578 c 21.643,-9.9099 16.5423,-33.7265 1.794,-36.4777 l -83.1213,11.3619 c -24.6377,7.182 -17.4924,37.7039 -1.196,37.6736 z m 154.7615,-26.2164 82.5233,-12.5578 c 21.643,-9.9099 16.5423,-33.7265 1.794,-36.4777 l -83.1213,11.3619 c -24.6377,7.182 -17.4924,37.7039 -1.196,37.6736 z m 80.3408,-82.8778 82.5233,-12.5578 c 21.643,-9.9099 16.5423,-33.7265 1.794,-36.4777 l -83.1213,11.3619 c -24.6377,7.182 -17.4924,37.7039 -1.196,37.6736 z m -158.1824,23.7075 82.5233,-12.5578 c 21.643,-9.9099 16.5423,-33.7265 1.794,-36.4777 l -83.1213,11.3619 c -24.6377,7.182 -17.4924,37.7039 -1.196,37.6736 z m 4307.86868,-658.0847 78.7239,-10.886 c 20.6465,-8.5906 15.7806,-29.2367 1.7114,-31.6216 l -79.2944,9.8493 c -23.5033,6.2259 -16.687,32.6846 -1.1409,32.6583 z m 147.6361,-22.7263 78.7239,-10.886 c 20.6466,-8.5907 15.7807,-29.2367 1.7115,-31.6217 l -79.2944,9.8494 c -23.5034,6.2259 -16.687,32.6846 -1.141,32.6583 z m 76.6419,-71.8447 78.7239,-10.8861 c 20.6466,-8.5907 15.7807,-29.2368 1.7114,-31.6217 l -79.2943,9.8494 c -23.5034,6.2259 -16.687,32.6846 -1.141,32.6584 z m -150.8995,20.5515 78.7238,-10.8861 c 20.6465,-8.5907 15.7807,-29.2368 1.7114,-31.6217 l -79.2944,9.8493 c -23.5033,6.226 -16.687,32.6847 -1.1408,32.6585 z m -380.027,123.9018 80.5274,-11.2869 c 21.1195,-8.9069 16.1421,-30.313 1.7506,-32.7858 l -81.111,10.212 c -24.0417,6.4551 -17.0693,33.8879 -1.167,33.8607 z m 151.0184,-23.5631 80.5273,-11.2868 c 21.1196,-8.9069 16.1423,-30.3131 1.7507,-32.7859 l -81.1109,10.212 c -24.0419,6.4552 -17.0694,33.888 -1.1671,33.8607 z m 78.3976,-74.4898 80.5274,-11.2869 c 21.1196,-8.9069 16.1422,-30.313 1.7506,-32.7858 l -81.1109,10.212 c -24.0418,6.4551 -17.0693,33.8879 -1.1671,33.8607 z m -154.3565,21.3081 80.5274,-11.2868 c 21.1194,-8.907 16.1422,-30.3131 1.7505,-32.7859 l -81.1109,10.212 c -24.0417,6.4551 -17.0693,33.8879 -1.167,33.8607 z m -375.2663,131.6997 80.5202,-12.0232 c 21.1176,-9.488 16.1407,-32.2907 1.7504,-34.9248 l -81.1037,10.8782 c -24.0396,6.8763 -17.0678,36.0988 -1.1669,36.0698 z m 151.0049,-25.1003 80.5202,-12.0232 c 21.1177,-9.488 16.1408,-32.2907 1.7505,-34.9248 l -81.1037,10.8782 c -24.0397,6.8763 -17.0678,36.0988 -1.167,36.0698 z m 78.3907,-79.3496 80.5202,-12.0232 c 21.1177,-9.488 16.1408,-32.2907 1.7505,-34.9248 l -81.1037,10.8783 c -24.0397,6.8762 -17.0678,36.0987 -1.167,36.0697 z m -154.3428,22.6983 80.5202,-12.0232 c 21.1176,-9.4881 16.1408,-32.2907 1.7504,-34.9248 l -81.1037,10.8782 c -24.0396,6.8762 -17.0678,36.0988 -1.1669,36.0698 z m -379.1254,134.1679 82.5233,-12.5578 c 21.643,-9.9099 16.5423,-33.7265 1.794,-36.4777 l -83.1213,11.3619 c -24.6377,7.182 -17.4924,37.7039 -1.196,37.6736 z m 154.7615,-26.2164 82.5233,-12.5578 c 21.643,-9.9099 16.5423,-33.7265 1.794,-36.4777 l -83.1213,11.3619 c -24.6377,7.182 -17.4924,37.7039 -1.196,37.6736 z m 80.3408,-82.8778 82.5233,-12.5578 c 21.643,-9.9099 16.5423,-33.7265 1.794,-36.4777 l -83.1213,11.3619 c -24.6377,7.182 -17.4924,37.7039 -1.196,37.6736 z m -158.1824,23.7075 82.5233,-12.5578 c 21.643,-9.9099 16.5423,-33.7265 1.794,-36.4777 l -83.1213,11.3619 c -24.6377,7.182 -17.4924,37.7039 -1.196,37.6736 z m -387.2888,138.2425 82.5233,-12.5578 c 21.643,-9.9099 16.5423,-33.7265 1.794,-36.4777 l -83.1213,11.3619 c -24.6377,7.182 -17.4924,37.7039 -1.196,37.6736 z m 154.7615,-26.2164 82.5233,-12.5578 c 21.643,-9.9099 16.5423,-33.7265 1.794,-36.4777 l -83.1213,11.3619 c -24.6377,7.182 -17.4924,37.7039 -1.196,37.6736 z m 80.3408,-82.8778 82.5233,-12.5578 c 21.643,-9.9099 16.5423,-33.7265 1.794,-36.4777 l -83.1213,11.3619 c -24.6377,7.182 -17.4924,37.7039 -1.196,37.6736 z m -158.1824,23.7075 82.5233,-12.5578 c 21.643,-9.9099 16.5423,-33.7265 1.794,-36.4777 l -83.1213,11.3619 c -24.6377,7.182 -17.4924,37.7039 -1.196,37.6736 z m -365.1947,129.4909 78.7239,-10.8861 c 20.6465,-8.5906 15.7806,-29.2367 1.7114,-31.6216 l -79.2944,9.8493 c -23.5033,6.2259 -16.687,32.6847 -1.1409,32.6584 z m 152.7103,-26.1091 78.7239,-10.886 c 20.6466,-8.5907 15.7807,-29.2367 1.7115,-31.6217 l -79.2944,9.8494 c -23.5034,6.2259 -16.687,32.6846 -1.141,32.6583 z m 74.9505,-76.9189 78.7239,-10.8861 c 20.6466,-8.5906 15.7807,-29.2367 1.7114,-31.6216 l -79.2943,9.8494 c -23.5034,6.2259 -16.687,32.6845 -1.141,32.6583 z m -154.2823,32.3912 78.7238,-10.8861 c 20.6465,-8.5907 15.7807,-29.2367 1.7114,-31.6216 l -79.2944,9.8493 c -23.5033,6.2259 -16.687,32.6846 -1.1408,32.6584 z m -361.7594,123.9155 78.7239,-10.886 c 20.6465,-8.5906 15.7806,-29.2367 1.7114,-31.6216 l -79.2944,9.8493 c -23.5033,6.2259 -16.687,32.6846 -1.1409,32.6583 z m 147.6361,-26.1091 78.7239,-10.886 c 20.6466,-8.5907 15.7807,-29.2368 1.7115,-31.6218 l -79.2944,9.8494 c -23.5034,6.226 -16.687,32.6847 -1.141,32.6584 z m 76.6419,-68.462 78.7239,-10.8861 c 20.6466,-8.5906 15.7807,-29.2367 1.7114,-31.6216 l -79.2943,9.8494 c -23.5034,6.2259 -16.687,32.6845 -1.141,32.6583 z m -150.8995,20.5515 78.7238,-10.8861 c 20.6465,-8.5907 15.7807,-29.2367 1.7114,-31.6216 l -79.2944,9.8493 c -23.5033,6.2259 -16.687,32.6846 -1.1408,32.6584 z m -378.2505,125.1842 78.7239,-10.886 c 20.6465,-8.5906 15.7806,-29.2367 1.7114,-31.6216 l -79.2944,9.8493 c -23.5033,6.2259 -16.687,32.6846 -1.1409,32.6583 z m 147.6361,-22.7263 78.7239,-10.886 c 20.6466,-8.5907 15.7807,-29.2367 1.7115,-31.6217 l -79.2944,9.8494 c -23.5034,6.2259 -16.687,32.6846 -1.141,32.6583 z m 76.6419,-71.8447 78.7239,-10.8861 c 20.6466,-8.5907 15.7807,-29.2368 1.7114,-31.6217 l -79.2943,9.8494 c -23.5034,6.2259 -16.687,32.6846 -1.141,32.6584 z m -150.8995,20.5515 78.7238,-10.8861 c 20.6465,-8.5907 15.7807,-29.2368 1.7114,-31.6217 l -79.2944,9.8493 c -23.5033,6.226 -16.687,32.6847 -1.1408,32.6585 z m -380.027,123.9018 80.5274,-11.2869 c 21.1195,-8.9069 16.1421,-30.313 1.7506,-32.7858 l -81.111,10.212 c -24.0417,6.4551 -17.0693,33.8879 -1.167,33.8607 z m 151.0184,-23.5631 80.5273,-11.2868 c 21.1196,-8.9069 16.1423,-30.3131 1.7507,-32.7859 l -81.1109,10.212 c -24.0419,6.4552 -17.0694,33.888 -1.1671,33.8607 z m 78.3976,-74.4898 80.5274,-11.2869 c 21.1196,-8.9069 16.1422,-30.313 1.7506,-32.7858 l -81.1109,10.212 c -24.0418,6.4551 -17.0693,33.8879 -1.1671,33.8607 z m -154.3565,21.3081 80.5274,-11.2868 c 21.1194,-8.907 16.1422,-30.3131 1.7505,-32.7859 l -81.1109,10.212 c -24.0417,6.4551 -17.0693,33.8879 -1.167,33.8607 z m -375.2663,131.6997 80.5202,-12.0232 c 21.1176,-9.488 16.1407,-32.2907 1.7504,-34.9248 l -81.1037,10.8782 c -24.0396,6.8763 -17.0678,36.0988 -1.1669,36.0698 z m 151.0049,-25.1003 80.5202,-12.0232 c 21.1177,-9.488 16.1408,-32.2907 1.7505,-34.9248 l -81.1037,10.8782 c -24.0397,6.8763 -17.0678,36.0988 -1.167,36.0698 z m 78.3907,-79.3496 80.5202,-12.0232 c 21.1177,-9.488 16.1408,-32.2907 1.7505,-34.9248 l -81.1037,10.8783 c -24.0397,6.8762 -17.0678,36.0987 -1.167,36.0697 z m -154.3428,22.6983 80.5202,-12.0232 c 21.1176,-9.4881 16.1408,-32.2907 1.7504,-34.9248 l -81.1037,10.8782 c -24.0396,6.8762 -17.0678,36.0988 -1.1669,36.0698 z m -379.1254,134.1679 82.5233,-12.5578 c 21.643,-9.9099 16.5423,-33.7265 1.794,-36.4777 l -83.1213,11.3619 c -24.6377,7.182 -17.4924,37.7039 -1.196,37.6736 z m 154.7615,-26.2164 82.5233,-12.5578 c 21.643,-9.9099 16.5423,-33.7265 1.794,-36.4777 l -83.1213,11.3619 c -24.6377,7.182 -17.4924,37.7039 -1.196,37.6736 z m 80.3408,-82.8778 82.5233,-12.5578 c 21.643,-9.9099 16.5423,-33.7265 1.794,-36.4777 l -83.1213,11.3619 c -24.6377,7.182 -17.4924,37.7039 -1.196,37.6736 z m -158.1824,23.7075 82.5233,-12.5578 c 21.643,-9.9099 16.5423,-33.7265 1.794,-36.4777 l -83.1213,11.3619 c -24.6377,7.182 -17.4924,37.7039 -1.196,37.6736 z m -387.2888,138.2425 82.5233,-12.5578 c 21.643,-9.9099 16.5423,-33.7265 1.794,-36.4777 l -83.1213,11.3619 c -24.6377,7.182 -17.4924,37.7039 -1.196,37.6736 z m 154.7615,-26.2164 82.5233,-12.5578 c 21.643,-9.9099 16.5423,-33.7265 1.794,-36.4777 l -83.1213,11.3619 c -24.6377,7.182 -17.4924,37.7039 -1.196,37.6736 z m 80.3408,-82.8778 82.5233,-12.5578 c 21.643,-9.9099 16.5423,-33.7265 1.794,-36.4777 l -83.1213,11.3619 c -24.6377,7.182 -17.4924,37.7039 -1.196,37.6736 z m -158.1824,23.7075 82.5233,-12.5578 c 21.643,-9.9099 16.5423,-33.7265 1.794,-36.4777 l -83.1213,11.3619 c -24.6377,7.182 -17.4924,37.7039 -1.196,37.6736 z"
         style="display:inline;fill:#0b0c07;fill-opacity:1;stroke:none;stroke-width:0.937;stroke-linecap:butt;stroke-linejoin:miter;stroke-miterlimit:4;stroke-dasharray:none;stroke-opacity:1"
         id="path4843-8-7-0-6" />
    </g>
  </g>
  <g
     inkscape:groupmode="layer"
     id="layer3"
     inkscape:label="Plan 2"
     style="display:inline">
    <g
       id="g5604">
      <g
         transform="matrix(0.77963004,0,0,0.77963004,2471.5408,1643.2683)"
         id="g4812">
        <g
           id="g5147"
           transform="matrix(0.1097589,-0.66682691,0.66682691,0.1097589,1885.777,1804.7189)">
          <g
             id="g5241">
            <path
               sodipodi:nodetypes="cccscsscccsscscssccsccccsscssccccsccccsccccscssscccccccscccccc"
               style="display:inline;fill:#372d22;fill-opacity:1;stroke-width:1.37528527"
               d="m -184.11051,-710.88585 c -18.9038,-6.5803 -28.7694,-15.595 -33.9068,-30.9821 -2.5543,-7.6503 -3.406,-5.8105 9.7604,-21.0863 4.7276,-5.4849 8.5956,-10.2074 8.5956,-10.4943 0,-0.2869 -0.9283,-3.1527 -2.0629,-6.3685 -1.1347,-3.2158 -2.063,-6.9916 -2.063,-8.3905 0,-1.3989 95.53042,-133.6065 212.2897137,-293.79445 l 212.2896763,-291.2507 29.41671,-62.2475 29.4167,-62.2473 66.35752,-85.2357 c 36.49663,-46.8796 66.35751,-85.8825 66.35751,-86.673 0,-0.7905 -1.5069,-4.411 -3.34866,-8.0455 -9.09433,-17.9468 -12.79545,-36.992 -10.25379,-52.7639 l 1.7148,-10.641 67.32032,-80.1278 c 59.60515,-70.9449 123.25488,-146.7814 345.30533,-411.4197 70.13033,-83.5808 245.64268,-293.2794 268.32878,-320.5935 8.7954,-10.5897 20.7505,-24.7073 26.5668,-31.3724 5.8164,-6.6651 24.0445,-28.0086 40.507,-47.4299 l 29.9318,-35.3114 -0.7724,-34.3996 c -0.4249,-18.9198 -1.0269,-36.051 -1.3378,-38.0694 -0.311,-2.0184 0.026,-17.1809 0.7478,-33.6945 1.9085,-43.6321 6.7697,-63.6475 16.0224,-65.9698 14.4135,-3.6176 49.7468,8.901 93.0478,32.9667 23.2548,12.9245 80.9196,48.7217 112.7618,70.0004 11.2225,7.4993 21.1811,13.3372 22.1304,12.9729 0.9493,-0.3643 42.4154,-49.4076 92.1468,-108.9851 84.6108,-101.3626 90.3711,-108.5947 89.6499,-112.5564 -2.6783,-14.712 -2.5647,-22.5569 0.4721,-32.6018 6.879,-22.7545 22.3286,-46.516 33.9712,-52.2477 8.9768,-4.4194 27.5281,-4.5136 39.3008,-0.1996 16.339,5.9872 38.528,21.5529 59.2673,41.5763 29.3594,28.3459 39.4502,53.99 29.36,74.6136 -7.0057,14.3193 -30.0603,32.6914 -49.771,39.6623 -7.302,2.5825 -10.1928,2.8248 -25.4296,2.1319 l -17.1911,-0.7819 -83.8924,100.4999 c -46.1408,55.275 -84.0764,100.9922 -84.3014,101.5937 -0.225,0.6016 10.2959,7.7799 23.3798,15.9517 31.9002,19.9241 77.0746,50.0673 101.4925,67.7222 407.2614,520.6124 70.6207,106.3404 -91.6439,86.9579 -1.6564,0.053 -24.1396,25.9607 -63.5528,73.2339 -33.5443,40.2339 -62.7702,74.3903 -64.9466,75.9031 -2.1764,1.5129 -119.1973,141.0699 -260.0468,310.1269 -140.8493,169.0569 -296.60942,355.8991 -346.1337,415.2049 -69.55054,83.2873 -91.0637,109.9236 -94.52385,117.0334 -2.781,5.7143 -6.71875,11.1213 -10.38432,14.2589 -13.51139,11.5652 -37.623,13.0948 -67.70258,4.2948 l -11.21229,-3.2804 -92.14411,91.8388 -92.14412,91.8388 -31.26617,21.2043 -31.26618,21.2044 -250.83032,264.0549 c -137.956651,145.23005 -252.70425,266.06305 -254.99475,268.51755 -3.8373,4.1124 -4.649,4.3965 -10.33422,3.6173 l -6.1697,-0.8457 -10.0427,12.5423 c -5.5235,6.8985 -10.7018,12.5342 -11.5074,12.5241 -0.8056,-0.014 -6.5349,-1.7834 -12.7319,-3.9405 z"
               id="path5145"
               inkscape:connector-curvature="0" />
            <g
               style="display:inline"
               id="g4995"
               transform="translate(-66.35828,-3340.5007)">
              <path
                 inkscape:connector-curvature="0"
                 id="path4977"
                 d="m 1765.4512,341.66797 c -5.952,0.15998 -12.1453,0.62247 -17.4742,3.52668 -5.0015,2.88703 -8.8947,7.34498 -12.3308,11.92284 -3.7421,5.07663 -7.0941,10.43369 -10.0468,16.00624 -4.5346,8.632 -8.1099,17.80427 -10.3909,27.28077 -1.4367,8.19881 -0.4341,16.56593 0.9007,24.70497 0.38,3.7403 -1.4267,7.31762 -3.7845,10.0979 -8.6764,12.15205 -18.3784,23.52732 -27.8159,35.08456 -28.222,34.15276 -56.6492,68.13528 -85.0961,102.1007 -21.0089,25.05263 -42.0498,50.08471 -63.4162,74.83121 -1.0919,1.17816 -2.1006,2.48544 -3.3891,3.44603 -2.249,1.18539 -5.0252,0.27813 -6.8993,-1.14535 -16.9245,-9.57019 -32.7157,-20.96754 -49.268,-31.14514 -27.4076,-17.34439 -54.8639,-34.65164 -83.1226,-50.58147 -20.812,-11.60589 -42.3232,-22.25269 -65.1595,-29.24699 -7.3448,-2.23016 -15.0001,-3.97592 -22.7316,-3.3945 -1.9013,0.15529 -3.7336,1.09136 -4.8328,2.67499 -1.9626,2.52263 -2.7707,5.66676 -3.7959,8.64538 -2.1888,7.314 -3.1509,14.92374 -4.0584,22.49195 -1.5189,14.04824 -2.1581,28.17412 -2.6317,42.29068 -0.3658,12.29419 -0.1488,24.59767 0.3419,36.88512 0.581,18.66947 1.0756,37.34425 1.2595,56.02148 -0.8332,3.03469 -3.4521,5.02306 -5.2862,7.43187 -38.1873,45.01685 -76.6041,89.84016 -114.447,135.14802 -99.8883,119.28542 -199.78152,238.56679 -299.77028,357.76809 -119.43839,142.4051 -238.95095,284.748 -358.44185,427.109 -1.62816,9.6142 -3.13322,19.4763 -1.58008,29.2051 1.64926,12.25 6.41717,23.8217 11.72862,34.9045 0.90019,2.1198 1.97756,4.3579 1.64638,6.7264 -2.16026,4.5589 -5.81735,8.1457 -8.61932,12.2908 -39.41854,51.8521 -79.80728,102.9622 -119.4954,154.6017 -1.81207,2.4536 -3.74852,4.8267 -5.37409,7.4026 -8.69378,17.7756 -16.98054,35.7459 -25.51572,53.5975 -11.01213,23.2575 -22.01932,46.5178 -33.03453,69.7734 -101.90972,139.9277 -203.81773,279.8566 -305.695318,419.8077 -38.993081,53.7948 -77.981257,107.5892 -116.459279,161.7561 -0.441803,0.7122 -1.082568,1.3785 -1.40186,2.1189 0.707284,4.9589 3.247353,9.4751 3.82013,14.4657 -0.745688,2.5136 -2.932225,4.1721 -4.357447,6.2779 -5.086449,6.2074 -10.552376,12.1146 -15.249976,18.6323 -0.18515,2.783 1.43247,5.1747 2.19693,7.7495 3.31767,8.257 9.33431,15.584 17.291348,19.7218 7.386215,4.2626 15.530004,6.9381 23.683598,9.3041 3.317356,-3.1401 6.127955,-6.7578 9.08724,-10.2256 3.905923,-4.7215 7.638893,-9.6225 11.817057,-14.0947 4.108866,-0.6866 8.145521,1.2563 12.253906,0.5957 2.851889,-1.4973 4.520205,-4.4296 6.901947,-6.5261 167.539624,-176.3411 335.075814,-352.686 502.617584,-529.0247 20.84637,-14.138 41.69265,-28.2761 62.53906,-42.4141 61.7757,-61.6221 123.55417,-123.2414 185.32813,-184.8652 13.84768,4.0511 27.802,8.3388 42.28353,9.2437 9.55385,0.3973 19.40568,-0.346 28.2067,-4.3433 6.88948,-3.2128 12.06816,-9.2059 15.58985,-15.8262 7.34676,-12.6581 17.16653,-23.595 26.17521,-35.0595 32.17732,-39.5346 64.97371,-78.5612 97.58212,-117.7414 132.80831,-159.3255 265.66251,-318.6126 398.52431,-477.8935 53.6631,-64.2567 107.2731,-128.5591 161.3687,-192.4526 8.8257,-10.4108 17.7411,-20.7528 26.7899,-30.9623 25.6415,-29.30874 50.3873,-59.38461 75.549,-89.10348 13.0387,-15.43393 26.1442,-30.81931 39.6109,-45.87832 2.0171,-2.11763 4.0548,-4.31425 6.5721,-5.83109 2.635,-0.83655 5.2804,0.42851 7.7221,1.30912 17.8574,6.65296 35.0096,15.00173 52.2589,23.06267 21.4826,10.22019 42.8078,20.91578 62.9255,33.65363 16.3454,10.48153 31.4051,22.85574 45.5388,36.14163 13.1216,12.20001 25.5782,25.42636 34.7087,40.94304 5.6868,9.6175 10.228,20.0592 12.2382,31.0956 1.3774,9.2302 -0.3319,18.6504 -3.4145,27.369 -4.0597,12.1642 -9.7851,23.6699 -15.1263,35.3016 -4.1361,8.8342 -8.4977,17.5916 -11.6982,26.8178 -1.8125,6.8039 -2.0405,14.0741 -0.4719,20.9527 12.012,-7.1991 23.3776,-15.4215 34.5642,-23.8322 8.5498,-6.4451 16.8661,-13.1928 24.6799,-20.5115 11.3031,-10.5843 21.6867,-22.2992 29.9564,-35.4436 5.2113,-8.3583 9.5108,-17.4433 11.4811,-27.1346 2.1324,-11.0192 1.4704,-22.3208 1.0705,-33.4712 -0.4562,-10.19976 -1.5046,-20.54009 -5.3249,-30.09662 -4.1399,-10.69715 -9.9707,-20.66791 -16.5873,-30.0074 -10.8325,-15.10612 -24.2205,-28.14771 -37.8603,-40.68648 -17.704,-16.13 -35.8926,-31.72223 -53.5879,-47.86343 -20.934,-19.12015 -42.0189,-38.15846 -64.8178,-55.06383 -35.9475,-27.08105 -73.7211,-51.60168 -111.5055,-76.02188 -10.068,-6.47596 -20.2254,-12.84017 -29.8951,-19.90442 -1.4443,-1.13205 -2.772,-3.00351 -2.1488,-4.91912 0.6762,-2.39949 2.8025,-3.93794 4.1957,-5.90038 54.4315,-65.66844 109.1133,-131.13045 163.7749,-196.60624 1.0588,-1.29546 2.5935,-2.27608 4.3097,-2.27542 2.3265,-0.13801 4.6422,0.2648 6.9689,0.25218 9.6851,0.40313 19.4673,1.39317 29.1005,-0.17327 9.2494,-2.29694 17.5845,-7.20305 25.5344,-12.31332 9.685,-6.46366 18.6243,-14.33296 25.141,-24.05042 5.0418,-8.11211 6.2492,-18.38822 3.562,-27.51723 -2.4672,-9.59169 -7.6562,-18.24971 -13.526,-26.13022 -10.0126,-13.23781 -22.3189,-24.51764 -35.0891,-35.04261 -11.2262,-9.10183 -23.2207,-17.42795 -36.4328,-23.39486 -7.2154,-3.06669 -15.0867,-4.57788 -22.9387,-4.42706 z"
                 style="fill:#c9c9c9;stroke-width:1.37528527" />
              <path
                 inkscape:connector-curvature="0"
                 id="path4963"
                 d="m -52.495095,2630.4919 c -12.2778,-3.6424 -27.4084,-16.3199 -33.0309,-27.6755 -1.4417,-2.9118 -3.707,-8.845 -5.0339,-13.185 l -2.4126,-7.891 7.2559,-9.9877 c 3.9907,-5.4933 99.4644,-136.5484 212.163795,-291.2336 l 204.90794,-281.2458 27.98405,-59.0717 c 15.39125,-32.4895 29.4259,-61.6514 31.1881,-64.8044 1.76223,-3.153 32.37962,-43.1757 68.03868,-88.9396 35.65906,-45.7637 64.83465,-83.9254 64.83465,-84.8036 0,-0.8782 -1.47505,-4.5158 -3.27788,-8.0836 -4.71366,-9.3283 -10.03703,-27.156 -10.97152,-36.7432 -0.44237,-4.5384 -0.0475,-12.3731 0.87758,-17.4105 l 1.68189,-9.1588 110.16296,-131.1203 c 60.58962,-72.1161 126.15735,-150.3055 145.70608,-173.7541 19.54872,-23.4486 56.64287,-67.6984 82.43144,-98.3329 56.51171,-67.1308 108.35336,-129.0065 234.48543,-279.87064 52.4896,-62.7817 100.4408,-120.028 106.5582,-127.2139 6.1174,-7.1858 13.2477,-15.8501 15.8451,-19.254 2.5974,-3.4038 9.4357,-11.1398 15.1962,-17.191 5.7606,-6.0513 22.1279,-24.9271 36.3718,-41.9462 14.244,-17.0192 27.137,-32.3265 28.6512,-34.0162 2.1173,-2.3625 2.6898,-4.7452 2.4784,-10.3146 -3.4623,-91.2324 -1.9391,-135.4818 5.3145,-154.398 0.8702,-2.2692 2.8866,-5.5183 4.4808,-7.2202 13.7078,-14.6331 87.2794,20.043 201.6364,95.0363 21.0159,13.7819 29.8936,18.8966 31.2128,17.9827 1.014,-0.7024 41.5695,-48.9307 90.1235,-107.174 48.5541,-58.2434 89.2013,-106.9592 90.3272,-108.2574 1.7769,-2.0485 1.8087,-3.8298 0.241,-13.4832 -2.4681,-15.1985 -0.593,-23.8019 9.7355,-44.669 19.7111,-39.8228 37.5094,-46.3905 74.2456,-27.3974 29.6342,15.3213 62.827,46.5882 74.3881,70.072 6.3464,12.8914 7.2074,27.3485 2.2711,38.131 -5.9224,12.936 -22.9287,27.5436 -43.3021,37.1944 -9.18,4.3485 -9.5355,4.4004 -30.145,4.4004 -11.4705,0 -21.1129,0.3095 -21.4276,0.6877 -0.3147,0.3782 -38.1646,45.7478 -84.1107,100.8213 -67.6391,81.0759 -83.2332,100.5016 -81.9341,102.0669 0.8825,1.0633 13.1506,9.1768 27.2625,18.0301 78.0405,48.9592 134.276,90.1088 171.0761,125.1825 8.1211,7.7403 25.7592,23.5178 39.1956,35.0611 56.2963,48.3647 77.2312,75.6883 84.3227,110.0555 8.3975,40.69574 -0.9854,68.91554 -34.381,103.40524 -16.8733,17.4258 -29.8632,28.2198 -51.5838,42.8629 -21.2429,14.3212 -22.0178,14.2202 -21.0756,-2.7461 0.5863,-10.5591 1.1664,-12.2028 13.1214,-37.178 18.9768,-39.6453 21.796,-50.3345 17.5625,-66.5913 -5.156,-19.7991 -16.1017,-36.38794 -39.1133,-59.27834 -28.8598,-28.7077 -48.0105,-42.3121 -90.2034,-64.0792 -25.8786,-13.3506 -73.8592,-34.888 -79.7666,-35.8054 -3.9752,-0.6173 -6.3594,2.0444 -65.326,72.9295 -36.1451,43.4509 -62.1728,73.60624 -63.5759,73.65814 -1.3066,0.048 -14.3031,-9.6848 -28.881,-21.62914 -34.1109,-27.9484 -67.2564,-54.4526 -71.9105,-57.5021 -2.29,-1.5005 -3.9931,-1.8772 -4.5662,-1.0101 -0.5028,0.7607 -8.3407,11.4595 -17.4176,23.7753 -9.0769,12.3157 -18.2865,24.9503 -20.4656,28.0769 -2.1793,3.1265 -6.202,8.5702 -8.9393,12.09714 -2.7376,3.5269 -7.4527,9.9319 -10.4783,14.2333 -3.0257,4.3014 -10.8075,15.0311 -17.2929,23.8438 -6.4856,8.8126 -26.8593,36.7554 -45.2752,62.095 -18.4159,25.3397 -34.0323,46.7972 -34.7031,47.6834 -0.7398,0.9774 -0.5322,2.7121 0.5274,4.4089 2.361,3.7805 19.9121,18.6564 31.1884,26.4345 5.0428,3.4784 9.0996,7.2453 9.015,8.3709 -0.1224,1.6317 -165.9034,202.2378 -175.2979,212.122 -2.4586,2.5868 -2.6398,2.5892 -8.1432,0.1075 -3.0958,-1.3959 -10.7061,-5.5265 -16.9119,-9.1789 -6.2058,-3.6524 -11.7122,-6.4858 -12.2364,-6.2963 -0.5243,0.1895 -16.5322,21.6958 -35.573,47.7918 -19.0409,26.0961 -37.1793,50.9191 -40.3074,55.1624 -10.3939,14.099 -30.21171,41.2193 -71.74507,98.1819 -22.61239,31.0127 -42.99286,58.9241 -45.28996,62.0253 -6.24106,8.4259 -25.293,34.4945 -62.55686,85.5958 l -33.43446,45.85 6.35188,13.2872 c 8.27818,17.3169 12.74544,30.7363 14.71413,44.2002 1.39883,9.5666 1.29091,11.8662 -0.88087,18.7708 -5.49781,17.4789 -16.13457,26.574 -34.38639,29.4024 -10.73587,1.6637 -25.7439,0.3658 -40.75653,-3.5243 -10.2618,-2.6591 -13.44817,-4.2289 -13.44817,-6.6252 0,-0.9865 9.97812,-11.6023 22.17359,-23.5905 19.48454,-19.1533 21.98185,-22.1037 20.59254,-24.3284 -2.9176,-4.6718 -44.46664,-56.5988 -58.63331,-73.2785 -14.41629,-16.9736 -26.6709,-29.3238 -31.84382,-32.0923 -2.72769,-1.4598 -4.24995,0.063 -20.93677,20.9442 -9.89736,12.3852 -17.9952,23.1832 -17.9952,23.9955 0,2.0958 -26.87864,35.5659 -33.86042,42.164 -8.1486,7.7008 -650.077105,813.3578 -652.256505,818.619 -2.2479,5.4271 -3.6053,5.9 -10.8039,3.7643 z"
                 style="fill:#dfc14f;fill-opacity:1;stroke-width:1.37528527" />
              <path
                 inkscape:connector-curvature="0"
                 id="path4947"
                 d="m -52.495095,2630.4919 c -12.2778,-3.6424 -27.4084,-16.3199 -33.0309,-27.6755 -1.4417,-2.9118 -3.707,-8.845 -5.0339,-13.185 l -2.4126,-7.891 7.2559,-9.9877 c 3.9907,-5.4933 99.4644,-136.5484 212.163795,-291.2336 l 204.90794,-281.2458 27.98405,-59.0717 c 15.39125,-32.4895 29.4259,-61.6514 31.1881,-64.8044 1.76223,-3.153 32.37962,-43.1757 68.03868,-88.9396 35.65906,-45.7637 64.83465,-83.9254 64.83465,-84.8036 0,-0.8782 -1.47505,-4.5158 -3.27788,-8.0836 -4.71366,-9.3283 -10.03703,-27.156 -10.97152,-36.7432 -0.44237,-4.5384 -0.0475,-12.3731 0.87758,-17.4105 l 1.68189,-9.1588 110.16296,-131.1203 c 60.58962,-72.1161 126.15735,-150.3055 145.70608,-173.7541 19.54872,-23.4486 56.64287,-67.6984 82.43144,-98.3329 56.51171,-67.1308 108.35336,-129.0065 234.48543,-279.87064 52.4896,-62.7817 100.4408,-120.028 106.5582,-127.2139 6.1174,-7.1858 13.2477,-15.8501 15.8451,-19.254 2.5974,-3.4038 9.4357,-11.1398 15.1962,-17.191 5.7606,-6.0513 22.1279,-24.9271 36.3718,-41.9462 14.244,-17.0192 27.137,-32.3265 28.6512,-34.0162 2.1173,-2.3625 2.6898,-4.7452 2.4784,-10.3146 -3.4623,-91.2324 -1.9391,-135.4818 5.3145,-154.398 0.8702,-2.2692 2.8866,-5.5183 4.4808,-7.2202 7.3537,-7.8501 33.6329,-1.0605 73.9341,19.1017 24.2156,12.1149 53.6362,30.0979 53.6362,32.7847 0,0.7951 -119.9739,154.0265 -266.6087,340.5143 l -266.60866,339.06874 -0.88019,11.4509 c -1.85301,24.1071 -10.90661,43.9522 -27.64206,60.5901 -12.71291,12.6389 -22.1446,18.6172 -38.07278,24.1326 -6.19617,2.1455 -12.35664,5.02 -13.68992,6.3876 -1.3333,1.3677 -46.70055,58.8046 -100.81614,127.6376 -88.74768,112.8838 -98.16015,125.3283 -96.02684,126.9598 1.30083,0.9948 7.6256,4.6299 14.05506,8.078 30.71598,16.473 53.1605,31.0733 76.12199,49.5177 5.93775,4.7697 11.52521,8.6721 12.41656,8.6721 0.89135,0 8.40826,-8.2001 16.70424,-18.2225 24.30341,-29.361 87.71854,-105.8802 122.23982,-147.4994 17.56738,-21.1794 57.57889,-69.4519 88.91448,-107.2722 64.71904,-78.1123 78.47254,-94.7045 123.78844,-149.3368 52.0234,-62.7188 145.9377,-176.0474 166.209,-200.5683 10.2699,-12.4229 45.4754,-54.7681 78.2345,-94.10054 32.7588,-39.3323 60.3779,-73.4666 61.3752,-75.8539 0.9975,-2.3873 20.0202,-25.9526 42.2726,-52.3673 73.0947,-86.7675 142.7913,-170.8003 142.7913,-172.1629 0,-0.736 -6.8578,-5.7566 -15.2395,-11.1569 -8.3818,-5.4003 -15.0348,-10.4236 -14.7843,-11.1629 0.2503,-0.7393 40.0634,-48.7504 88.4734,-106.6915 48.4101,-57.941 89.4795,-107.182 91.2654,-109.4245 3.1848,-3.999 3.2128,-4.288 1.4593,-15.0859 -2.4027,-14.7948 -0.5354,-23.614 9.2765,-43.8118 6.0827,-12.5213 9.3981,-17.5022 16.1313,-24.2355 5.3829,-5.3828 10.0954,-8.8309 12.9161,-9.4504 2.4425,-0.5365 4.0897,-1.544 3.6602,-2.2388 -0.4524,-0.7321 4.0251,-1.2178 10.6465,-1.1548 6.2849,0.06 10.6094,0.4354 9.61,0.835 -0.9996,0.3995 2.2183,2.1366 7.151,3.8602 17.9851,6.2845 40.0105,21.0535 60.5137,40.577 23.9419,22.7979 35.8681,45.3777 33.0529,62.5791 -2.7855,17.0202 -19.6143,34.1751 -45.6016,46.4851 -9.18,4.3485 -9.5355,4.4004 -30.145,4.4004 -11.4705,0 -21.1129,0.3095 -21.4276,0.6877 -0.3147,0.3782 -38.1646,45.7478 -84.1107,100.8213 -67.6391,81.0759 -83.2332,100.5016 -81.9341,102.0669 0.8825,1.0633 13.1506,9.1768 27.2625,18.0301 78.0405,48.9592 134.276,90.1088 171.0761,125.1825 8.1211,7.7403 25.7592,23.5178 39.1956,35.0611 56.2963,48.3647 77.2312,75.6883 84.3227,110.0555 8.3975,40.69574 -0.9854,68.91554 -34.381,103.40524 -16.8733,17.4258 -29.8632,28.2198 -51.5838,42.8629 -21.2429,14.3212 -22.0178,14.2202 -21.0756,-2.7461 0.5863,-10.5591 1.1664,-12.2028 13.1214,-37.178 18.9768,-39.6453 21.796,-50.3345 17.5625,-66.5913 -5.156,-19.7991 -16.1017,-36.38794 -39.1133,-59.27834 -28.8598,-28.7077 -48.0105,-42.3121 -90.2034,-64.0792 -25.8786,-13.3506 -73.8592,-34.888 -79.7666,-35.8054 -3.9752,-0.6173 -6.3594,2.0444 -65.326,72.9295 -36.1451,43.4509 -62.1728,73.60624 -63.5759,73.65814 -1.3066,0.048 -14.3031,-9.6848 -28.881,-21.62914 -34.1109,-27.9484 -67.2564,-54.4526 -71.9105,-57.5021 -2.29,-1.5005 -3.9931,-1.8772 -4.5662,-1.0101 -0.5028,0.7607 -8.3407,11.4595 -17.4176,23.7753 -9.0769,12.3157 -18.2865,24.9503 -20.4656,28.0769 -2.1793,3.1265 -6.202,8.5702 -8.9393,12.09714 -2.7376,3.5269 -7.4527,9.9319 -10.4783,14.2333 -3.0257,4.3014 -10.8075,15.0311 -17.2929,23.8438 -6.4856,8.8126 -26.8593,36.7554 -45.2752,62.095 -18.4159,25.3397 -34.0323,46.7972 -34.7031,47.6834 -0.7398,0.9774 -0.5322,2.7121 0.5274,4.4089 2.361,3.7805 19.9121,18.6564 31.1884,26.4345 5.0428,3.4784 9.0996,7.2453 9.015,8.3709 -0.1224,1.6317 -165.9034,202.2378 -175.2979,212.122 -2.4586,2.5868 -2.6398,2.5892 -8.1432,0.1075 -3.0958,-1.3959 -10.7061,-5.5265 -16.9119,-9.1789 -6.2058,-3.6524 -11.7122,-6.4858 -12.2364,-6.2963 -0.5243,0.1895 -16.5322,21.6958 -35.573,47.7918 -19.0409,26.0961 -37.1793,50.9191 -40.3074,55.1624 -10.3939,14.099 -30.21171,41.2193 -71.74507,98.1819 -22.61239,31.0127 -42.99286,58.9241 -45.28996,62.0253 -6.24106,8.4259 -25.293,34.4945 -62.55686,85.5958 l -33.43446,45.85 6.35188,13.2872 c 8.27818,17.3169 12.74544,30.7363 14.71413,44.2002 1.39883,9.5666 1.29091,11.8662 -0.88087,18.7708 -5.49781,17.4789 -16.13457,26.574 -34.38639,29.4024 -10.73587,1.6637 -25.7439,0.3658 -40.75653,-3.5243 -10.2618,-2.6591 -13.44817,-4.2289 -13.44817,-6.6252 0,-0.9865 9.97812,-11.6023 22.17359,-23.5905 19.48454,-19.1533 21.98185,-22.1037 20.59254,-24.3284 -2.9176,-4.6718 -44.46664,-56.5988 -58.63331,-73.2785 -14.41629,-16.9736 -26.6709,-29.3238 -31.84382,-32.0923 -2.72769,-1.4598 -4.24995,0.063 -20.93677,20.9442 -9.89736,12.3852 -17.9952,23.1832 -17.9952,23.9955 0,2.0958 -26.87864,35.5659 -33.86042,42.164 -8.1486,7.7008 -650.077105,813.3578 -652.256505,818.619 -2.2479,5.4271 -3.6053,5.9 -10.8039,3.7643 z"
                 style="fill:#a9a9a9;stroke-width:1.37528527" />
              <path
                 inkscape:connector-curvature="0"
                 id="path4931"
                 d="M 7.0963049,2450.3668 C 28.549105,2419.5228 98.226105,2323.1506 284.51458,2066.6622 l 48.94489,-67.3889 29.72272,-63.2632 29.72272,-63.2631 65.9355,-84.5029 c 36.26453,-46.4765 65.93549,-85.2534 65.93549,-86.1709 0,-0.9174 -1.89276,-5.8867 -4.20614,-11.0428 -6.37351,-14.2053 -9.55463,-27.2792 -9.48681,-38.989 0.10521,-18.1716 0.86626,-19.9966 15.84932,-38.0083 11.26503,-13.5421 214.98187,-256.3331 224.30885,-267.3327 1.60346,-1.891 18.8766,-22.6234 38.38474,-46.0721 19.50814,-23.4486 47.30563,-56.5586 61.7722,-73.5777 23.97857,-28.2095 320.38944,-382.37704 347.02894,-414.64854 6.2439,-7.5641 16.8941,-19.9417 23.6671,-27.5057 15.2926,-17.079 65.6491,-77.2519 67.1872,-80.2848 0.6226,-1.2278 0.5474,-19.2515 -0.1672,-40.0527 -2.0455,-59.534 1.2877,-111.0188 8.0318,-124.0604 4.4325,-8.5717 9.4567,-9.3055 28.7337,-4.197 24.2768,6.4335 101.0835,45.3625 101.0835,51.2335 0,0.7826 -119.9739,154.0038 -266.6087,340.4916 l -266.60866,339.06874 -0.88019,11.4509 c -1.85301,24.1071 -10.90661,43.9522 -27.64206,60.5901 -12.71291,12.6389 -22.1446,18.6172 -38.07278,24.1326 -6.19617,2.1455 -12.35664,5.02 -13.68992,6.3876 -1.3333,1.3677 -46.70055,58.8046 -100.81614,127.6376 -88.74768,112.8838 -98.16015,125.3283 -96.02684,126.9598 1.30083,0.9948 7.6256,4.6299 14.05506,8.078 30.71598,16.473 53.1605,31.0733 76.12199,49.5177 5.93775,4.7697 11.28417,8.6721 11.88094,8.6721 0.59675,0 0.99905,0.794 0.89399,1.7644 -0.10507,0.9704 5.06945,6.6901 11.49891,12.7104 34.01251,31.8484 58.64369,62.7696 73.37258,92.1098 17.80989,35.4776 18.98796,59.358 3.70563,75.1154 -7.96757,8.2152 -16.24386,10.84 -34.17993,10.84 -12.33621,0 -33.81564,-3.781 -38.67668,-6.8081 -3.17511,-1.9773 31.02307,-37.4834 40.35438,-41.8978 10.8629,-5.139 12.8366,-11.92 7.71268,-26.4986 -10.86833,-30.9223 -54.80853,-79.5044 -107.35411,-118.6952 -20.96054,-15.6333 -38.00689,-26.1202 -58.39559,-35.925 -18.78626,-9.0342 -29.71438,-12.2256 -41.86341,-12.2256 -7.148,0 -8.98288,0.5234 -11.83522,3.3758 -1.85664,1.8566 -3.37571,4.6468 -3.37571,6.2004 0,2.4761 0.33792,2.6137 2.73787,1.1149 2.22562,-1.3899 4.39812,-1.2744 11.61191,0.6177 18.71252,4.9079 45.85763,17.7315 49.39075,23.3327 0.93581,1.4835 -2.77193,7.1779 -14.39275,22.1042 -8.60931,11.0583 -21.22319,27.3656 -28.03086,36.2385 -6.80766,8.8729 -14.60016,18.3478 -17.31668,21.0553 -2.7165,2.7076 -129.50012,161.1895 -281.74136,352.1823 C 130.551,2298.2259 4.7323049,2455.7305 3.1952049,2457.2433 c -1.5371,1.5128 0.2184,-1.5816 3.9011,-6.8765 z"
                 style="fill:#cfb54a;stroke-width:1.37528527" />
              <path
                 inkscape:connector-curvature="0"
                 id="path4929"
                 d="m 1107.8969,1390.5572 c -20.351,-11.078 -34.6688,-23.3512 -45.209,-38.7531 l -4.5072,-6.5862 10.0388,-11.9801 c 32.1936,-38.4194 137.5074,-163.3302 150.6924,-178.7335 8.579,-10.0224 16.399,-18.2226 17.3779,-18.2226 0.9788,0 3.2801,1.6104 5.1138,3.5786 5.5692,5.9774 32.9388,29.8812 43.9051,38.3452 5.673,4.3787 10.2412,8.7303 10.1514,9.6704 -0.089,0.9401 -38.7698,48.1639 -85.9554,104.9419 -60.2524,72.501 -86.6109,103.2507 -88.5426,103.2934 -1.5128,0.033 -7.3922,-2.4659 -13.0652,-5.554 z"
                 style="fill:#cfb54a;stroke-width:1.37528527" />
              <path
                 inkscape:connector-curvature="0"
                 id="path4911"
                 d="m 1829.0797,1143.9398 c -0.4629,-1.2064 -0.6048,-6.3627 -0.3154,-11.4584 0.4601,-8.0989 1.7962,-11.9477 10.6159,-30.5818 25.3338,-53.5244 26.7434,-62.7103 13.7471,-89.585 -7.8062,-16.14214 -16.4965,-27.22284 -36.7082,-46.80514 -26.7655,-25.932 -45.5115,-39.201 -83.3124,-58.9716 -28.0944,-14.6938 -81.1912,-38.4368 -85.9567,-38.4368 -1.6018,0 -24.3729,26.2078 -63.9985,73.6576 -36.3307,43.5041 -62.3051,73.48424 -63.4491,73.23394 -2.5136,-0.5497 -137.7874,-112.25174 -140.3221,-115.87084 -1.2412,-1.772 -1.9275,-2.0715 -1.9275,-0.8412 0,1.0508 -0.3596,1.5509 -0.799,1.1114 -1.5862,-1.5861 2.9554,-7.3918 42.545,-54.3867 66.8237,-79.3237 142.0852,-170.0028 142.9173,-172.1947 0.6315,-1.6637 0.8041,-1.6055 0.8917,0.3007 0.059,1.2999 0.8821,2.1052 1.8276,1.7894 2.7239,-0.9097 67.3992,39.4437 127.2129,79.3732 54.3194,36.2616 89.2904,63.1729 119.319,91.8197 8.327,7.9439 26.2745,24.0898 39.8832,35.8798 55.1882,47.8126 70.8073,68.1631 82.7683,107.8405 2.912,9.66 3.5358,40.68874 0.929,46.20964 -0.8572,1.8154 -3.3085,7.6214 -5.4475,12.9024 -10.3881,25.6478 -38.8257,56.2272 -76.3667,82.1182 -20.4584,14.1096 -23.0541,15.5011 -24.0539,12.8957 z"
                 style="fill:#cfb54a;stroke-width:1.37528527" />
              <path
                 inkscape:connector-curvature="0"
                 id="path4821"
                 d="m 1542.816,659.70886 c -10.8606,-7.1675 -11.2544,-7.6052 -8.9394,-9.9361 1.3319,-1.341 42.6487,-50.6238 91.8152,-109.5172 84.2828,-100.9572 89.3795,-107.3642 89.1475,-112.0691 -0.1348,-2.7446 -0.6684,-9.9412 -1.1848,-15.9925 -0.8337,-9.7723 -0.5254,-12.2322 2.7585,-22.0045 2.0335,-6.0513 5.9501,-15.3344 8.7037,-20.6293 6.0926,-11.7158 19.725,-26.0366 26.1225,-27.4417 2.4425,-0.5365 4.0897,-1.544 3.6602,-2.2388 -0.4524,-0.7321 4.0251,-1.2178 10.6465,-1.1548 6.2849,0.06 10.6094,0.4354 9.61,0.835 -0.9996,0.3995 2.2183,2.1366 7.151,3.8602 17.9851,6.2845 40.0105,21.0535 60.5137,40.577 23.9419,22.7979 35.8681,45.3777 33.0529,62.5791 -2.6447,16.1599 -19.7337,33.595 -44.1076,45.0009 -11.0371,5.1649 -24.0298,6.3876 -41.5743,3.9122 -29.47,-4.1579 -46.5035,-14.5494 -63.9695,-39.0259 -3.6107,-5.0598 -6.9746,-9.1745 -7.4755,-9.1438 -0.5009,0.031 -4.624,4.5839 -9.1624,10.1183 -4.5385,5.5343 -43.5076,52.2679 -86.5981,103.8523 -69.2696,82.9236 -78.7102,93.6985 -81.4857,93.0019 -1.7265,-0.4333 -3.1392,-0.5563 -3.1392,-0.2733 0,0.283 3.7132,3.1193 8.2517,6.3028 6.9501,4.8753 9.5861,7.1874 7.9079,6.9364 -0.1891,-0.028 -5.4563,-3.4254 -11.7048,-7.5491 z"
                 style="fill:#cfb54a;stroke-width:1.37528527" />
              <path
                 inkscape:connector-curvature="0"
                 id="path4907"
                 d="m 1234.8281,772.17969 c -4.7212,0.35314 -8.8089,3.28569 -11.8718,6.70899 -18.5386,19.29445 -34.9705,40.45453 -52.2829,60.82639 -105.1663,125.81811 -210.31931,251.64773 -315.80785,377.19603 -25.61983,30.5879 -51.44974,61.0048 -76.7799,91.8318 -7.82097,9.562 -15.67233,19.1029 -23.29793,28.8212 -3.56987,4.5419 -6.94225,9.233 -10.1797,14.0179 -2.71675,3.8822 -5.76094,7.5176 -8.9241,11.0398 -28.49729,33.1431 -56.66667,66.566 -84.95242,99.8894 -45.45867,53.6581 -90.92059,107.314 -136.25356,161.0782 -2.253,2.7066 -4.06588,5.8007 -5.03962,9.1993 -2.17665,6.8454 -2.14768,14.1279 -2.01022,21.2368 0.36573,11.1812 2.90787,22.269 7.2649,32.5569 1.92275,4.9263 3.94508,9.8132 5.84216,14.7496 -3.24085,4.6947 -6.77804,9.1843 -10.18358,13.7656 -13.86531,18.3566 -28.00765,36.5103 -42.06123,54.716 -26.04127,33.5993 -52.21156,67.0988 -78.21223,100.7294 -3.19915,5.6718 -5.66465,11.7143 -8.54304,17.5501 -17.14216,36.4431 -34.26811,72.894 -51.42766,109.3288 -5.27468,7.4975 -10.74445,14.8638 -16.10521,22.3057 -87.53003,120.5869 -175.11269,241.1358 -262.387381,361.9078 -15.211175,21.0705 -30.459488,42.1204 -45.2429096,63.4959 -2.1667419,3.1748 -4.3831452,6.3199 -6.46176315,9.5523 -0.89354335,1.5467 -1.37059155,3.6898 -0.15697669,5.206 1.54272894,1.9732 4.85635004,1.759 6.33894474,-0.1795 1.8148444,-2.468 3.8177497,-4.7972 5.7125837,-7.2075 55.999491,-69.6887 111.698312,-139.6182 167.491482,-209.4719 95.46531,-119.5915 190.93173,-239.1821 286.42976,-358.7474 31.3748,-39.2245 62.69184,-78.4961 94.32561,-117.5124 9.83474,-12.0612 19.8162,-24.0077 29.30639,-36.3441 7.8966,-10.2169 15.78676,-20.4282 23.65727,-30.6631 4.33429,-5.6982 8.66555,-11.409 12.6201,-17.3776 1.26377,-2.0741 2.61038,-4.3924 2.37249,-6.9134 -0.39778,-2.486 -2.42672,-4.259 -4.42874,-5.5618 -7.40272,-5.4694 -15.92408,-9.1155 -24.26961,-12.8833 -10.25246,-4.3913 -20.8638,-8.2132 -31.92898,-9.8997 -0.76719,0.063 -0.75608,-0.1444 -0.12406,-0.554 2.14139,-1.6435 4.93921,-1.8926 7.54395,-1.7301 10.90901,-0.114 21.525,3.1402 31.4371,7.4683 27.69241,11.9736 53.22026,28.4878 76.81966,47.1731 20.04666,15.8087 39.12605,32.8859 56.48779,51.6281 9.56952,10.395 18.65084,21.3181 26.66431,32.9648 6.05367,8.9511 11.45763,18.4869 14.66063,28.862 1.00587,3.4974 1.69838,7.2795 0.78647,10.8605 -0.9489,2.9246 -3.51689,5.0038 -6.20594,6.3316 -4.26192,2.4347 -8.3589,5.2094 -11.87834,8.6472 -10.60308,9.5382 -20.77083,19.6552 -29.40744,31.0356 -1.34278,1.9333 -2.9451,4.0893 -2.65987,6.58 0.37529,2.3843 2.64124,3.9875 4.88591,4.4355 3.74636,1.1591 7.51666,2.2363 11.37039,2.9811 7.80247,1.5757 15.74278,2.4013 23.68455,2.85 8.85705,0.3302 17.88928,-0.2415 26.33941,-3.0821 11.67057,-4.4858 20.44125,-15.1886 23.38688,-27.2455 2.26637,-9.3053 1.37487,-19.0826 -0.87185,-28.2998 -3.56737,-14.4065 -9.85618,-27.9774 -17.00328,-40.9303 -12.13274,-21.6014 -27.66235,-41.1021 -44.4101,-59.2853 -28.71843,-31.039 -62.05328,-57.625 -97.88351,-80.0031 -24.46057,-15.2066 -50.6545,-27.9412 -78.42332,-35.8262 -8.16294,-2.3114 -16.48923,-3.9946 -24.79662,-5.7022 30.0328,-38.8575 60.47151,-77.3989 90.77709,-116.044 34.89461,-44.4287 69.78923,-88.8574 104.68385,-133.2861 12.0209,5.165 24.46379,9.8407 37.54932,11.3137 27.86541,3.0042 56.89663,-7.3231 76.43701,-27.4328 12.53807,-12.5946 21.72942,-28.7438 25.12422,-46.265 2.93581,-15.5503 2.13486,-31.697 -1.63292,-47.033 -0.26014,-1.523 -0.82362,-3.1503 -0.30167,-4.6687 1.3032,-2.4746 3.55376,-4.2342 5.13855,-6.5087 85.79583,-103.0791 171.63405,-206.1229 257.32585,-309.28857 28.6499,-34.53259 57.2611,-69.09953 85.3555,-104.08633 6.2056,-8.27916 11.4135,-17.58616 13.4752,-27.81483 1.0575,-5.83915 -0.058,-12.31408 -3.9924,-16.89809 -3.1644,-3.73519 -7.9388,-6.22752 -12.8947,-6.09499 z"
                 style="fill:#6a696a;stroke-width:1.37528527" />
              <path
                 inkscape:connector-curvature="0"
                 id="path4905"
                 d="m 1107.8969,1390.5572 c -20.351,-11.078 -34.6688,-23.3512 -45.209,-38.7531 l -4.5072,-6.5862 10.0388,-11.9801 c 32.1936,-38.4194 137.5074,-163.3302 150.6924,-178.7335 8.579,-10.0224 16.399,-18.2226 17.3779,-18.2226 0.9788,0 3.2801,1.6104 5.1138,3.5786 5.5692,5.9774 32.9388,29.8812 43.9051,38.3452 5.673,4.3787 10.2412,8.7303 10.1514,9.6704 -0.089,0.9401 -38.7698,48.1639 -85.9554,104.9419 -60.2524,72.501 -86.6109,103.2507 -88.5426,103.2934 -1.5128,0.033 -7.3922,-2.4659 -13.0652,-5.554 z"
                 style="fill:#6a696a;stroke-width:1.37528527" />
              <path
                 inkscape:connector-curvature="0"
                 id="path4887"
                 d="m 1829.0797,1143.9398 c -0.4629,-1.2064 -0.6048,-6.3627 -0.3154,-11.4584 0.4601,-8.0989 1.7962,-11.9477 10.6159,-30.5818 25.3338,-53.5244 26.7434,-62.7103 13.7471,-89.585 -7.8062,-16.14214 -16.4965,-27.22284 -36.7082,-46.80514 -26.7655,-25.932 -45.5115,-39.201 -83.3124,-58.9716 -28.0944,-14.6938 -81.1912,-38.4368 -85.9567,-38.4368 -1.6018,0 -24.35,26.1804 -63.932,73.5778 -33.7949,40.4678 -62.1997,73.56534 -63.1219,73.55024 -2.5573,-0.042 -140.4936,-114.55394 -140.9707,-117.03094 -0.2328,-1.2093 12.5316,-17.6014 28.8932,-37.1048 16.1207,-19.2161 57.2041,-68.3579 91.2964,-109.2039 34.0923,-40.846 62.9632,-75.0732 64.1576,-76.0605 1.8567,-1.5347 5.329,0.1222 23.9436,11.4251 56.9202,34.5621 127.3047,81.1559 162.5421,107.6011 28.0272,21.0341 41.7506,32.4847 61.409,51.2384 8.327,7.9439 26.2745,24.0898 39.8832,35.8798 55.1882,47.8126 70.8073,68.1631 82.7683,107.8405 2.912,9.66 3.5358,40.68874 0.929,46.20964 -0.8572,1.8154 -3.3085,7.6214 -5.4475,12.9024 -10.3881,25.6478 -38.8257,56.2272 -76.3667,82.1182 -20.4584,14.1096 -23.0541,15.5011 -24.0539,12.8957 z"
                 style="fill:#6a696a;stroke-width:1.37528527" />
              <path
                 inkscape:connector-curvature="0"
                 id="path4885"
                 d="m 1306.9375,530.57812 c -5.4094,0.67717 -9.9435,4.73479 -12.0762,9.63282 -3.9015,8.21869 -5.0119,17.36851 -6.1038,26.30253 -2.5672,25.05517 -2.139,50.29206 -1.267,75.42593 0.2699,6.58953 0.5733,13.19871 1.5382,19.72759 0.3502,1.74825 0.9177,3.80357 2.654,4.65203 1.591,0.64067 3.4991,-0.23556 4.26,-1.72375 23.1229,-29.4064 46.3854,-58.70731 69.2689,-88.29872 3.8317,-5.04542 7.8413,-9.97209 11.2718,-15.30401 1.0365,-1.28547 0.5234,-3.15424 -0.3803,-4.36327 -1.0526,-1.43663 -2.6602,-2.25725 -4.0519,-3.31397 -5.4899,-3.6828 -11.6344,-6.221 -17.6306,-8.95008 -12.3952,-5.31641 -25.1879,-9.79449 -38.3364,-12.83984 -3.0044,-0.62731 -6.0703,-1.04925 -9.1467,-0.94726 z"
                 style="fill:#6a696a;stroke-width:1.37528527" />
              <path
                 inkscape:connector-curvature="0"
                 id="path4819"
                 d="m 1538.8457,653.56576 c -1.6245,-0.6554 -3.3371,-1.8122 -3.8058,-2.5706 -0.4687,-0.7584 7.381,-11.168 17.4438,-23.1324 10.0627,-11.9644 51.3036,-61.3033 91.6464,-109.642 l 73.3506,-87.8885 -0.7896,-6.6672 c -0.7875,-6.6492 -0.775,-6.6747 4.6472,-9.4409 2.9903,-1.5255 5.437,-2.4505 5.437,-2.0554 0,0.395 2.3115,-0.5207 5.1369,-2.035 10.814,-5.796 31.0424,-2.2471 48.5283,8.5139 12.3857,7.6222 25.8632,20.3184 29.2017,27.5091 6.4389,13.8679 8.1519,18.397 9.503,25.1243 1.761,8.7686 0.5288,19.0408 -2.6675,22.237 -3.5773,3.5773 -35.0365,1.8322 -47.3149,-2.6246 -17.8665,-6.4852 -29.8885,-16.1392 -43.0277,-34.5521 -3.5627,-4.9927 -6.8876,-9.0525 -7.3885,-9.0218 -0.5009,0.031 -4.624,4.5839 -9.1624,10.1183 -44.2868,54.0054 -165.1506,197.4746 -166.3029,197.4068 -0.815,-0.048 -2.8111,-0.6234 -4.4356,-1.2789 z"
                 style="fill:#6a696a;stroke-width:1.37528527" />
              <path
                 inkscape:connector-curvature="0"
                 id="path4817"
                 d="m 1564.666,674.36328 c -3.9071,2.09784 -6.1664,6.09527 -9.1277,9.23784 -32.4792,37.98676 -64.5387,76.33348 -96.5422,114.7225 -25.0686,30.13906 -50.268,60.17026 -74.8722,90.69026 -1.9358,2.4647 -3.9758,4.85289 -5.8478,7.36448 -0.8302,1.23946 -1.0787,2.99451 -0.096,4.22906 1.2367,1.84495 3.3196,2.83136 4.86,4.3815 40.886,34.66486 82.0193,69.04229 123.4503,103.05128 4.0651,3.3034 8.125,6.618 12.2307,9.868 2.0576,0.9661 4.578,-0.2724 5.5781,-2.1934 41.0189,-48.04759 80.9433,-97.02396 122.3184,-144.76753 2.4387,0.46651 4.6941,1.5902 7.059,2.35278 16.3883,6.13029 32.1872,13.69282 48.0684,21.00602 24.1262,11.41955 47.9501,23.66111 70.2732,38.33925 18.8193,12.68681 35.6857,28.05221 51.4709,44.30213 9.5101,9.87066 18.2572,20.63785 24.6926,32.78285 4.0681,7.5546 7.5266,15.5472 9.212,23.9866 1.2203,7.1462 0.1559,14.4861 -1.9546,21.3489 -2.8491,10.0216 -7.2294,19.4984 -11.3579,29.0365 -5.6895,12.6456 -12.0247,25.029 -16.7411,38.0862 -2.0646,7.4646 -2.4737,15.4043 -1.1171,23.0301 0.9462,2.6003 4.3841,3.7263 6.7622,2.3895 3.1784,-1.2572 5.8787,-3.4143 8.8008,-5.1412 13.8843,-9.0415 27.3445,-18.7627 40.0016,-29.4601 14.6622,-12.4815 28.2019,-26.4324 39.2196,-42.2673 5.9701,-8.6906 10.714,-18.179 14.5535,-27.9833 2.0781,-4.7838 3.8328,-9.8409 3.8719,-15.1143 0.7375,-10.5418 1.0932,-21.2414 -0.9634,-31.66534 -2.0302,-10.72357 -5.5119,-21.15799 -10.086,-31.05664 -5.7267,-12.26394 -13.3281,-23.60256 -22.2081,-33.80466 -17.4251,-20.64789 -38.1331,-38.13416 -58.3144,-55.98455 -13.2472,-11.60089 -26.2778,-23.45355 -39.1237,-35.48773 -33.938,-31.10084 -71.365,-58.09307 -109.4775,-83.80084 -32.5086,-21.80369 -65.6514,-42.64585 -99.0781,-63.00595 -10.2674,-6.15134 -20.5802,-12.26207 -31.3075,-17.57804 -1.3253,-0.55806 -2.7549,-0.95617 -4.2075,-0.89487 z"
                 style="fill:#1212aa;stroke-width:1.37528527" />
              <path
                 inkscape:connector-curvature="0"
                 id="path4815"
                 d="m 1410.9674,921.26386 c -9.1758,-6.9256 -19.679,-15.1485 -23.3402,-18.2732 -6.1245,-5.2268 -6.4951,-5.8864 -4.6337,-8.2464 8.1548,-10.3384 174.5215,-209.8268 177.9343,-213.3589 l 4.3388,-4.4904 17.2128,10.045 c 27.6619,16.1429 93.5341,59.6291 94.387,62.3106 0.4211,1.3236 -232.9762,165.8537 -238.0209,167.7896 -1.1236,0.4311 -2.4092,1.7389 -2.8571,2.9062 -0.6126,1.5961 -0.1279,1.9427 1.9565,1.3977 1.9577,-0.5119 2.7661,-0.056 2.754,1.5534 -0.014,1.924 -2.8044,4.3316 -11.6541,10.0563 -0.7667,0.496 -8.9016,-4.7644 -18.0774,-11.6899 z"
                 style="fill:#06057c;stroke-width:1.37528527" />
            </g>
          </g>
        </g>
      </g>
      <g
         id="g5598">
        <path
           style="fill:#372d22;fill-opacity:1;stroke:none;stroke-width:1px;stroke-linecap:butt;stroke-linejoin:miter;stroke-opacity:1"
           d="m 752.66594,2932.0144 -1.69138,121.7797 175.05826,230.0282 814.40148,-210.5773 z"
           id="path5446"
           inkscape:connector-curvature="0" />
        <path
           style="fill:#605961;fill-opacity:1;stroke:none;stroke-width:1px;stroke-linecap:butt;stroke-linejoin:miter;stroke-opacity:1"
           d="m 975.92718,3073.7343 1050.07852,-227.2379 7.1759,162.6545 -1062.03837,248.7658 z"
           id="path5444"
           inkscape:connector-curvature="0" />
        <path
           style="display:inline;fill:#203731;fill-opacity:1;stroke:none;stroke-width:1px;stroke-linecap:butt;stroke-linejoin:miter;stroke-opacity:1"
           d="m 1043.584,3154.4314 314.5975,-69.3467 -8.457,-35.5191 -309.5233,67.6554 z"
           id="path5448"
           inkscape:connector-curvature="0" />
        <path
           style="display:inline;fill:#483c2c;fill-opacity:1;stroke:none;stroke-width:1px;stroke-linecap:butt;stroke-linejoin:miter;stroke-opacity:1"
           d="m 1579.7528,3005.5896 c 10.1483,-3.3828 380.5614,-86.2606 380.5614,-86.2606 l 5.0742,27.0622 -387.327,86.2606 z"
           id="path5450"
           inkscape:connector-curvature="0" />
        <path
           style="fill:#99917a;fill-opacity:1;stroke:none;stroke-width:1px;stroke-linecap:butt;stroke-linejoin:miter;stroke-opacity:1"
           d="M 975.92718,3073.7343 2026.0057,2846.4964 1870.5271,2657.5301 932.87157,2848.8884 Z"
           id="path5440"
           inkscape:connector-curvature="0" />
        <path
           style="display:inline;fill:#13140f;fill-opacity:1;stroke:none;stroke-width:1px;stroke-linecap:butt;stroke-linejoin:miter;stroke-opacity:1"
           d="m 1118.0049,3017.4293 475.279,-99.7917 -84.5692,-174.2125 -456.6738,98.1003 z"
           id="path5452"
           inkscape:connector-curvature="0" />
        <path
           style="display:inline;fill:#373c1c;fill-opacity:1;stroke:none;stroke-width:1px;stroke-linecap:butt;stroke-linejoin:miter;stroke-opacity:1"
           d="m 1124.7705,2878.7358 32.1363,81.1864 365.3389,-81.1864 -38.9018,-74.4209 z"
           id="path5454"
           inkscape:connector-curvature="0" />
        <path
           style="fill:#cdc8b4;fill-opacity:1;stroke:none;stroke-width:1px;stroke-linecap:butt;stroke-linejoin:miter;stroke-opacity:1"
           d="m 1021.3748,2607.2985 719.9855,-133.9507 -119.599,-126.7749 -703.2416,136.3428 z"
           id="path5434"
           inkscape:connector-curvature="0" />
        <path
           style="fill:#837e7a;fill-opacity:1;stroke:none;stroke-width:1px;stroke-linecap:butt;stroke-linejoin:miter;stroke-opacity:1"
           d="m 1021.3748,2607.2985 -88.50323,241.5899 937.65553,-191.3583 -129.1668,-184.1823 z"
           id="path5436"
           inkscape:connector-curvature="0" />
        <path
           style="fill:#8c8b93;fill-opacity:1;stroke:none;stroke-width:1px;stroke-linecap:butt;stroke-linejoin:miter;stroke-opacity:1"
           d="M 1021.3748,2607.2985 918.5197,2482.9157 746.29726,2760.3852 975.92718,3073.7343 932.87157,2848.8884 Z"
           id="path5438"
           inkscape:connector-curvature="0" />
        <path
           style="fill:#74717e;fill-opacity:1;stroke:none;stroke-width:1px;stroke-linecap:butt;stroke-linejoin:miter;stroke-opacity:1"
           d="m 746.29726,2760.3852 -2.39198,153.0866 227.23795,344.4449 4.78395,-184.1824 z"
           id="path5442"
           inkscape:connector-curvature="0"
           sodipodi:nodetypes="ccccc" />
        <ellipse
           style="opacity:1;fill:none;fill-opacity:1;stroke:none;stroke-width:0.93699998;stroke-linejoin:miter;stroke-miterlimit:4;stroke-dasharray:none;stroke-dashoffset:0;stroke-opacity:1"
           id="path5518"
           cx="1136.6101"
           cy="2508.7456"
           rx="71.883827"
           ry="18.182379" />
        <ellipse
           style="opacity:1;fill:#0a0907;fill-opacity:1;stroke:none;stroke-width:0.93699998;stroke-linejoin:miter;stroke-miterlimit:4;stroke-dasharray:none;stroke-dashoffset:0;stroke-opacity:1"
           id="path5518-9"
           cx="1507.0232"
           cy="2439.8215"
           rx="71.883827"
           ry="18.182379" />
        <ellipse
           ry="18.182379"
           rx="71.883827"
           cy="2508.7456"
           cx="1136.6101"
           id="ellipse5552"
           style="opacity:1;fill:#0b0b08;fill-opacity:1;stroke:none;stroke-width:0.93699998;stroke-linejoin:miter;stroke-miterlimit:4;stroke-dasharray:none;stroke-dashoffset:0;stroke-opacity:1" />
        <path
           style="fill:#a19460;fill-opacity:1;stroke:none;stroke-width:1px;stroke-linecap:butt;stroke-linejoin:miter;stroke-opacity:1"
           d="m 1206.8027,2242.7754 -0.9062,0.037 a 50.107178,15.222457 0 0 1 0.6953,2.5 50.107178,15.222457 0 0 1 -50.1074,15.2227 50.107178,15.222457 0 0 1 -49.7461,-13.5547 l -0.5723,0.023 v 278.3301 c 55.1817,2.7308 89.8209,-0.7254 102.75,-15.0098 z"
           id="path5535"
           inkscape:connector-curvature="0" />
        <ellipse
           style="opacity:1;fill:url(#linearGradient5536);fill-opacity:1;stroke:none;stroke-width:0.93699998;stroke-linejoin:miter;stroke-miterlimit:4;stroke-dasharray:none;stroke-dashoffset:0;stroke-opacity:1"
           id="path5555"
           cx="1156.4839"
           cy="2245.3125"
           rx="50.107178"
           ry="15.222457" />
        <path
           style="fill:#a99c69;fill-opacity:1;stroke:none;stroke-width:1px;stroke-linecap:butt;stroke-linejoin:miter;stroke-opacity:1"
           d="m 1437.6771,2174.4143 0.9062,0.037 a 50.107178,15.222457 0 0 0 -0.6953,2.5 50.107178,15.222457 0 0 0 50.1074,15.2227 50.107178,15.222457 0 0 0 49.7461,-13.5547 l 0.5723,0.023 v 278.3301 c -55.1817,2.7308 -89.8209,-0.7254 -102.75,-15.0098 z"
           id="path5535-1"
           inkscape:connector-curvature="0" />
        <ellipse
           style="opacity:1;fill:url(#linearGradient5544);fill-opacity:1;stroke:none;stroke-width:0.93699998;stroke-linejoin:miter;stroke-miterlimit:4;stroke-dasharray:none;stroke-dashoffset:0;stroke-opacity:1"
           id="path5555-4"
           cx="-1487.996"
           cy="2176.9517"
           rx="50.107178"
           ry="15.222457"
           transform="scale(-1,1)" />
      </g>
      <g
         style="stroke:none"
         id="g5666">
        <path
           sodipodi:nodetypes="ccccc"
           style="display:inline;fill:#372d22;fill-opacity:1;stroke:none;stroke-width:1px;stroke-linecap:butt;stroke-linejoin:miter;stroke-opacity:1"
           d="m 2031.9141,2432.3921 c 0,0 -98.6711,70.372 -85.8855,101.168 178.162,282.9563 659.4785,187.8401 707.0827,18.3188 l 24.2207,-189.3945 c -196.4756,143.7712 -420.0727,276.025 -645.4179,69.9077 z"
           id="path5629-6"
           inkscape:connector-curvature="0" />
        <path
           style="display:inline;fill:#b7ac52;fill-opacity:1;stroke:none;stroke-width:1px;stroke-linecap:butt;stroke-linejoin:miter;stroke-opacity:1"
           d="m 1983.6504,2326.4648 9.3691,185.4317 c 157.0364,268.916 648.4876,191.5037 696.0918,21.9824 l 24.2207,-189.3945 c -196.4756,143.7712 -504.3364,188.0977 -729.6816,-18.0196 z"
           id="path5629"
           inkscape:connector-curvature="0" />
        <path
           style="display:inline;fill:#949060;fill-opacity:1;stroke:none;stroke-width:1px;stroke-linecap:butt;stroke-linejoin:miter;stroke-opacity:1"
           d="m 2333.4199,2154.2207 c -127.2705,0.078 -244.3835,34.3756 -353.791,92.668 l 4.0215,79.5761 c 225.3452,206.1173 533.206,161.7908 729.6816,18.0196 l 11.4551,-89.584 c -140.9629,-70.081 -270.7271,-100.7532 -391.3672,-100.6797 z"
           id="path5623"
           inkscape:connector-curvature="0" />
        <path
           style="display:inline;fill:#7e8267;fill-opacity:0.94117647;stroke:none;stroke-width:1px;stroke-linecap:butt;stroke-linejoin:miter;stroke-opacity:1"
           d="m 1949.0547,1641.7832 30.5742,605.1055 c 109.4075,-58.2924 226.5205,-92.59 353.791,-92.668 120.6401,-0.073 250.4043,30.5987 391.3672,100.6797 l 76.0645,-594.7988 c -332.5013,201.8388 -626.0781,93.884 -851.7969,-18.3184 z"
           id="path5637"
           inkscape:connector-curvature="0" />
        <path
           style="fill:#a19f7a;fill-opacity:1;stroke:none;stroke-width:1px;stroke-linecap:butt;stroke-linejoin:miter;stroke-opacity:1"
           d="m 1949.0555,1641.7825 c -72.4591,-38.6713 -134.0736,-88.1871 -124.5637,-208.8274 790.5132,-133.0487 1010.8589,25.9507 1113.7461,95.2546 35.4525,25.1095 -84.096,102.9173 -137.3865,131.891 -254.9206,160.0005 -525.0876,151.7453 -851.7959,-18.3182 z"
           id="path5604"
           inkscape:connector-curvature="0"
           sodipodi:nodetypes="ccccc" />
        <ellipse
           style="display:inline;opacity:1;fill:#586150;fill-opacity:1;stroke:none;stroke-width:1.00925398;stroke-linejoin:miter;stroke-miterlimit:4;stroke-dasharray:none;stroke-dashoffset:0;stroke-opacity:1"
           id="path5606"
           cx="2482.3577"
           cy="1391.5853"
           rx="423.79434"
           ry="129.22726"
           transform="matrix(0.99768286,0.06803609,-0.0651496,0.99787551,0,0)" />
      </g>
    </g>
  </g>
  <g
     inkscape:groupmode="layer"
     id="layer4"
     inkscape:label="Plan 3"
     style="display:none">
    <g
       id="g5121">
      <path
         inkscape:connector-curvature="0"
         id="path4964"
         d="m 683.26637,1550.9034 c 52.87446,-12.6164 117.54293,-14.1244 155.14968,-58.4461 36.27226,-37.7069 5.84129,-93.4979 -44.55334,-92.196 -60.43005,-4.8024 -122.5029,-12.757 -182.48503,0.3883 -15.72685,40.061 3.65224,87.2042 30.91922,117.4828 12.58899,12.2081 27.31151,21.8546 40.96947,32.771 z"
         style="fill:#dbd474;fill-opacity:1;stroke:none;stroke-width:1px;stroke-linecap:butt;stroke-linejoin:miter;stroke-opacity:1" />
      <path
         sodipodi:nodetypes="ccccccccccccc"
         inkscape:connector-curvature="0"
         id="path5069"
         d="m -674.10942,3167.6878 c 73.13836,-101.6397 121.57395,-218.9861 204.95655,-313.6018 98.4207,-113.4513 129.74689,-115.6129 329.89605,-205.6218 148.8682906,-33.7334 227.441641,-55.9785 329.94508,28.8096 104.48817,68.2904 204.68906,140.6991 278.20733,244.0482 m 0,0 c 101.69734,24.1399 182.98228,147.972 179.67139,246.3553 -58.40477,124.2886 -128.31725,244.2885 -196.44555,364.0085 -93.08685,80.1278 -96.41595,271.5567 -242.78852,273.2484 -101.11528,-29.0383 -204.6792889,-11.759 -306.485406,-39.9098 -138.290774,-40.4156 -261.297444,-119.7938 -401.291274,-154.5771 -113.49502,-62.9859 -244.23327,-81.6792 -360.76182,-128.0428 32.85535,-95.0673 137.2699,-205.6973 185.09617,-314.7167"
         style="fill:#bbbfcd;fill-opacity:1;stroke:none;stroke-width:1px;stroke-linecap:butt;stroke-linejoin:miter;stroke-opacity:1" />
      <path
         inkscape:connector-curvature="0"
         id="path4834"
         d="m -20.15001,2656.6103 c 64.680631,11.8738 128.1132,29.996 184.67494,64.0426 56.67898,13.0612 105.03086,43.7481 147.8442,82.3906 46.35489,34.6496 88.18475,75.4857 130.4047,114.0894 38.43182,34.3463 41.00836,-15.7615 44.42721,-45.7286 1.08937,-72.4776 44.24018,-138.2038 33.03558,-211.1304 43.65373,-97.9562 107.38509,-185.0574 166.40776,-273.9332 32.55976,-36.6455 47.2533,-88.777 96.04698,-108.6428 92.95648,-51.3294 140.45648,-149.9218 185.49059,-241.1779 6.01916,-29.5372 49.79195,-52.5314 34.73895,-82.4124 36.72,-13.8161 55.0754,-50.76 89.7054,-69.2081 79.623,-42.9036 164.1372,-78.0166 240.9952,-126.1668 40.4697,-38.4465 98.1331,-48.8449 142.1867,-81.7864 66.3802,-65.4982 -5.7448,-150.7789 -84.5416,-140.4934 -78.9825,22.1178 -159.6755,34.7908 -240.4263,48.0852 -86.6334,25.8037 -176.86276,56.6927 -268.18962,36.5787 -74.99336,-10.4356 -146.56011,-46.615 -191.24348,-109.0336 -43.79658,-36.4521 -60.56322,-92.0584 -58.2009,-147.5073 1.46857,-84.5422 40.61187,-164.4108 34.49175,-249.9857 -3.94795,-81.3383 48.71981,-151.93541 60.45003,-231.1808 4.24631,13.35515 55.58533,-42.13372 82.70452,-50.42143 42.65726,-66.72433 -60.2311,-136.56554 -108.10096,-73.522 -48.62871,32.74561 -102.23478,60.49648 -135.82396,110.51399 -45.9447,56.48047 -79.5173,121.81299 -123.93792,179.64554 -45.76663,95.88 -74.60446,200.5607 -138.93542,286.9126 -32.75246,59.255 -81.09605,106.7116 -127.01066,155.2972 -51.17989,83.1061 -22.71294,185.194 -19.95741,276.5439 1.96508,56.6111 16.81585,112.7938 5.41802,169.0535 2.55277,83.0254 5.88359,166.7179 -10.95516,248.4874 -27.93565,53.2947 -21.822,123.3457 -71.888691,162.2353 -3.056504,50.314 -38.32007,92.7052 -74.5556304,125.1479 -23.9262876,38.6703 -60.1530446,67.4124 -78.2500516,109.6005 -41.372817,29.2977 -48.590337,100.5493 26.433857,72.905 8.837407,-4.4971 17.713817,-0.1305 26.561376,0.8015 z"
         style="fill:url(#linearGradient4988);fill-opacity:1;stroke:none;stroke-width:1px;stroke-linecap:butt;stroke-linejoin:miter;stroke-opacity:1" />
      <path
         inkscape:connector-curvature="0"
         id="path4840"
         d="m 1369.7427,1626.67 c -2.585,-26.7758 20.8183,-43.9644 36.9729,-61.1546 17.312,-15.9594 40.7146,-1.0546 52.7553,13.8345 15.0962,21.6576 36.9857,44.9296 30.4905,73.6311 -7.3708,27.5653 -38.3067,33.8562 -60.5926,44.9002 -13.3656,2.8062 -50.2625,24.0997 -41.8394,-1.6089 2.8181,-25.4415 -21.1334,-44.9971 -17.7867,-69.6023 z"
         style="fill:#efd45c;fill-opacity:1;stroke:none;stroke-width:1px;stroke-linecap:butt;stroke-linejoin:miter;stroke-opacity:1" />
      <path
         inkscape:connector-curvature="0"
         id="path4851"
         d="m 1325.3211,1619.3427 c -4.8368,-5.4319 -19.4135,-14.9198 -16.3249,-0.01 3.9527,26.1255 17.0147,50.6788 16.0346,77.6265 0.1915,17.6348 0.097,35.7005 -6.4628,52.3648 3.6647,9.3259 14.3175,-11.2681 16.7883,-16.5173 7.1007,-14.3922 12.3725,-30.8859 7.3492,-46.8421 -2.3795,-11.4928 -8.3241,-22.4336 -6.6962,-34.4388 0.5086,-12.0001 -4.3895,-22.3641 -10.6882,-32.1859 z"
         style="fill:#efd257;fill-opacity:1;stroke:none;stroke-width:1px;stroke-linecap:butt;stroke-linejoin:miter;stroke-opacity:1;filter:url(#filter5044)" />
      <path
         inkscape:connector-curvature="0"
         id="path4857"
         d="m 1217.7017,1693.9893 c 8.83,19.1381 23.0821,36.1778 26.384,57.5579 1.8067,12.697 1.4033,25.8718 -2.3478,38.1672 4.5517,5.5287 15.5335,-9.742 15.112,-16.9208 3.4971,-13.3541 0.8436,-27.1875 -4.7831,-39.5538 -3.7538,-12.2991 -11.99,-22.6757 -19.9051,-32.4318 -3.9917,-3.5025 -8.6286,-7.9871 -14.46,-6.8187 z"
         style="fill:#efd257;fill-opacity:1;stroke:none;stroke-width:1px;stroke-linecap:butt;stroke-linejoin:miter;stroke-opacity:1;filter:url(#filter5048)" />
      <path
         inkscape:connector-curvature="0"
         id="path4864"
         d="m 1146.3775,1774.0107 c -31.5068,0.2277 -62.9244,15.9692 -83.0058,39.9629 -32.5353,28.5133 -71.32415,48.4016 -109.98825,67.252 -14.23113,8.2052 -24.3102,22.0834 -37.32032,31.8359 -12.85505,19.6177 -13.14123,46.153 -2.68945,66.7988 14.57822,19.9877 15.2476,47.9536 23.60156,71.334 3.96271,0.5429 7.91572,1.1538 11.87891,1.6934 0.50798,0.07 1.03691,0.1291 1.55273,0.1953 4.12805,-8.2994 8.22269,-16.5865 12.2793,-24.8067 6.01916,-29.5372 49.79322,-52.5311 34.74026,-82.4121 36.71996,-13.8161 55.07506,-50.7589 89.70506,-69.207 33.241,-17.9114 67.3283,-34.4782 101.3613,-51.1895 6.2143,-8.7066 10.3033,-18.0222 7.9433,-28.748 -0.6182,-21.531 -24.8551,-17.8197 -40.289,-22.2734 -3.2488,-0.3166 -6.5102,-0.4591 -9.7696,-0.4356 z"
         style="fill:#f0d665;fill-opacity:1;stroke:none;stroke-width:1px;stroke-linecap:butt;stroke-linejoin:miter;stroke-opacity:1;filter:url(#filter5052)" />
      <path
         inkscape:connector-curvature="0"
         id="path4879"
         d="m 759.86988,851.60528 c -4.04126,10e-4 -7.43789,2.53025 -11.26758,3.48828 l -0.50586,0.17578 c -11.37034,3.19945 -23.29333,2.56191 -34.97265,2.58985 -5.47561,1.91785 -12.08723,5.09683 -13.01758,11.50586 0.29579,4.02189 -0.0922,8.05512 0.0332,12.11132 0.27613,10.24519 2.72892,20.25029 5.02149,30.17969 0.79593,6.91213 -0.47413,14.10923 1.93554,20.79102 0.01,1.08432 0.2923,2.06369 0.75,2.93945 6.05234,-18.00686 11.12017,-36.23688 13.89063,-54.95312 2.60543,8.1944 22.94803,-9.52751 44.53906,-26.36328 -1.29597,-1.60731 -3.35184,-2.6212 -5.58984,-2.42969 -0.27547,-0.0236 -0.54699,-0.0352 -0.81641,-0.0352 z"
         style="display:inline;fill:#efd45c;fill-opacity:1;stroke:none;stroke-width:1px;stroke-linecap:butt;stroke-linejoin:miter;stroke-opacity:1;filter:url(#filter5036)" />
      <path
         inkscape:connector-curvature="0"
         id="path4891"
         d="m 251.64052,1421.1433 c -21.82915,25.209 -45.2747,49.1078 -68.12109,73.2832 -41.6187,67.5806 -30.56846,147.7126 -23.50586,224.4161 21.79377,-20.8457 44.80592,-40.8311 61.55273,-65.9825 12.84101,-25.435 16.07282,-54.6568 17.97071,-82.6953 1.02646,-28.1313 -0.81533,-56.1975 -1.39649,-84.2617 1.82591,-22.0614 13.68955,-42.5435 13.5,-64.7598 z"
         style="display:inline;fill:#f1da71;fill-opacity:1;stroke:none;stroke-width:1px;stroke-linecap:butt;stroke-linejoin:miter;stroke-opacity:1;filter:url(#filter5040)" />
      <path
         inkscape:connector-curvature="0"
         id="path4904"
         d="m 318.82644,2139.7904 c -1.4179,0.035 -3.1497,0.2303 -5.23242,0.6211 -42.99546,9.2836 -90.41747,8.9907 -127.37696,36.0644 -12.15955,9.3931 -24.54585,18.6942 -36.34179,28.6309 -1.21808,3.3719 -2.3625,6.7774 -3.44336,10.2129 17.01087,-14.7573 38.18314,-25.0744 55.61914,-39.211 31.60821,-17.7469 68.20092,-25.1416 104.24414,-24.3613 10.65131,2.305 26.2376,-12.3005 12.53125,-11.957 z m -128.34766,151.4472 c -25.94134,0.1755 -51.49839,4.7947 -73.80664,18.5117 -1.48981,2.8664 -3.07625,5.678 -4.78125,8.4219 17.40593,-3.6905 34.38651,-10.2301 51.86328,-13.6347 28.46888,-10.5461 58.91911,-4.0327 87.5586,2.1367 30.04325,3.6938 58.94935,13.1178 87.32812,23.4199 50.73535,18.4332 98.76428,47.7749 132.61524,90.2949 6.53896,6.4938 21.24767,40.8326 26.52539,22.1289 -28.81655,-41.9667 -65.52057,-79.5088 -110.4375,-104.1367 -47.90074,-9.8644 -90.42299,-38.8732 -139.91797,-42.1855 -18.41365,-2.803 -37.78359,-5.0867 -56.94727,-4.9571 z m 0.6582,18.8907 c -29.70332,-0.4095 -58.51636,13.2581 -87.19921,19.9374 -0.26221,0.086 -0.52311,0.1754 -0.78516,0.2618 -4.54002,5.47 -9.723647,10.58 -15.720704,15.2382 -0.120085,1.9768 -0.305817,3.9365 -0.523437,5.8887 1.691967,-0.3262 3.748424,-1.2064 6.216797,-2.8554 30.730854,-29.5457 77.130804,-34.2034 117.615234,-28.3204 14.578,-0.2628 29.82842,10.9832 43.41602,4.1778 -13.11025,-8.5132 -31.29908,-7.6724 -46.41993,-12.5196 -5.5665,-1.1751 -11.09899,-1.7327 -16.59961,-1.8085 z"
         style="display:inline;fill:#dbd474;fill-opacity:1;stroke:none;stroke-width:1px;stroke-linecap:butt;stroke-linejoin:miter;stroke-opacity:1;filter:url(#filter5008)" />
      <path
         inkscape:connector-curvature="0"
         id="path5056"
         d="m 638.125,1313.3047 c -17.48803,36.9119 -28.3233,77.1393 -32.93945,117.4746 1.75099,41.5002 18.03715,81.1125 33.22656,119.3164 21.01979,49.6306 62.94335,91.1634 113.50781,109.959 32.97563,10.0238 67.09818,19.0048 102.00196,15.3086 35.28339,1.5173 71.25796,5.8332 104.66601,-8.2442 42.69411,-9.2394 88.05341,-20.5058 117.74801,-55.1836 2.218,-1.993 4.5699,-4.5198 6.9532,-7.4277 -65.5923,18.3493 -132.81231,31.5476 -200.63871,16.6094 -74.99336,-10.4356 -146.56077,-46.6146 -191.24414,-109.0332 -43.79658,-36.4521 -60.56154,-92.0589 -58.19922,-147.5078 0.29976,-17.2565 2.1842,-34.3162 4.91797,-51.2715 z"
         style="fill:#f2dc79;fill-opacity:1;stroke:none;stroke-width:1px;stroke-linecap:butt;stroke-linejoin:miter;stroke-opacity:1" />
      <path
         inkscape:connector-curvature="0"
         id="path5105"
         d="m -195.02539,2778.3262 c -12.855,-0.051 -26.22769,13.7181 -32.12109,48.6426 -19.56255,107.9418 -89.70185,196.903 -155.73633,280.416 -78.63731,69.5135 -105.93198,172.7788 -154.75977,262.0918 -44.84258,26.3498 -46.4493,114.6441 4.70703,41.8554 77.63507,-93.0381 102.66097,-220.8699 198.57032,-300.4804 81.35545,-62.3036 156.31992,-142.5458 162.28711,-251.0489 18.46678,-42.916 -1.52227,-81.3915 -22.94727,-81.4765 z m -127.19727,6.3711 c -5.5348,0.1288 -13.89549,3.9992 -25.82226,12.9629 -123.81936,169.9415 -221.23198,358.6218 -299.44141,553.3593 31.60769,-33.749 110.00475,-166.1793 137.69922,-244.832 60.2558,-62.3703 123.74463,-125.5361 149.70313,-210.4707 20.87769,-15.1683 66.06245,-111.6762 37.86132,-111.0195 z m 546.88672,200.7031 -15.06054,3.6601 -11.76758,10.0997 c 45.12871,63.2369 92.94607,133.2742 75.30468,215.1503 -10.64683,67.7723 51.01338,184.909 112.82618,93.0606 47.88683,-41.7452 162.18113,-125.5923 52.46289,-168.3633 -104.51265,-8.016 -112.63045,-144.8336 -213.76563,-153.6074 z m 297.88672,422.4043 c -66.66396,1.0809 -124.46203,43.3101 -173.96484,87.3223 -95.84926,55.258 -161.36454,145.5473 -240.03125,220.6875 -22.442122,21.8456 -45.06619,44.2711 -65.744143,68.0722 55.780484,3.1533 111.513143,5.2496 166.521483,21.0469 146.37257,-1.6917 149.70221,-193.1203 242.78906,-273.2481 23.44808,-41.2046 47.10083,-82.4464 70.42969,-123.8808 z"
         style="fill:#b0b4c6;fill-opacity:1;stroke:none;stroke-width:1px;stroke-linecap:butt;stroke-linejoin:miter;stroke-opacity:1" />
    </g>
  </g>
  <g
     inkscape:groupmode="layer"
     id="layer5"
     inkscape:label="Plan 4"
     style="display:none">
    <g
       id="g5087"
       style="stroke:none" />
    <g
       id="g5122">
      <path
         inkscape:connector-curvature="0"
         id="path5074"
         d="m 1073.1269,1158.1537 c -44.5994,-4.2722 -88.99808,-13.8289 -133.75389,-14.4159 -12.92262,-0.7792 -23.8829,10.5346 -29.67289,20.242 -5.8885,20.6547 18.50217,34.3194 36.51949,30.461 42.90637,-0.3934 85.07969,-9.9273 127.34979,-16.3735 4.0857,-6.5958 0.5094,-13.0154 -0.4425,-19.9136 z"
         style="display:inline;fill:#aaa089;fill-opacity:1;stroke:none;stroke-width:1px;stroke-linecap:butt;stroke-linejoin:miter;stroke-opacity:1" />
      <path
         inkscape:connector-curvature="0"
         id="path5072"
         d="m 1060.151,1158.1437 c 330.8539,0 661.7078,0 992.5617,0 3.4178,17.8015 -1.4824,27.2746 -20.6084,22.5038 -323.5672,-0.4086 -647.1344,-0.8171 -970.7016,-1.2257 -0.4172,-7.0927 -0.8345,-14.1854 -1.2517,-21.2781 z"
         style="display:inline;fill:url(#linearGradient5082);fill-opacity:1;stroke:none;stroke-width:1px;stroke-linecap:butt;stroke-linejoin:miter;stroke-opacity:1" />
      <g
         id="g5070">
        <g
           id="g5058">
          <path
             style="display:inline;fill:#bbbfcd;fill-opacity:1;stroke:none;stroke-width:1px;stroke-linecap:butt;stroke-linejoin:miter;stroke-opacity:1"
             d="m 4208.0797,2424.5986 c -118.3601,-40.8748 -244.6725,-53.577 -359.2458,-106.2815 -136.9336,-61.701 -147.9989,-91.0874 -291.6866,-256.9642 -75.0576,-132.9137 -118.9268,-201.7913 -67.1409,-324.3237 35.4131,-119.6966 76.002,-236.4689 153.8898,-336.5661 m 0,0 c -6.0769,-104.3463 89.2013,-217.7646 184.3924,-242.8419 135.8248,20.2584 270.8458,52.7713 405.0862,83.6555 103.4818,66.1599 287.8058,14.3837 331.4543,154.1071 1.2178,105.1952 47.5059,199.4368 49.7722,305.039 0.9937,144.0721 -39.723,284.691 -32.8451,428.7772 -27.7457,126.8013 -8.1129,257.4017 -19.0652,382.3359 -100.498,-4.1752 -236.4502,-72.4277 -354.6113,-86.9373"
             id="path5069-4"
             inkscape:connector-curvature="0"
             sodipodi:nodetypes="ccccccccccccc" />
          <path
             style="display:inline;fill:#b0b4c6;fill-opacity:1;stroke:none;stroke-width:1px;stroke-linecap:butt;stroke-linejoin:miter;stroke-opacity:1"
             d="m 3697.5539,2077.4858 c 3.6421,12.3283 20.6712,21.1844 55.8173,16.8017 109.0135,-12.2544 214.3677,29.3877 313.3247,68.6625 89.1656,55.3665 195.9196,51.8612 295.4917,72.9883 38.116,35.3886 123.1536,11.5756 38.7415,-16.5267 -111.4119,-47.6519 -241.0466,-34.9195 -344.8433,-103.9316 -83.0397,-60.0405 -181.4276,-108.8083 -287.0751,-83.3696 -46.4113,-5.3667 -77.5272,24.8281 -71.4568,45.3754 z m 42.6251,120.0118 c 1.7126,5.2647 7.8206,12.1621 19.8313,21.0129 198.3378,69.81 407.0433,108.9449 616.0369,127.9459 -41.4034,-20.5863 -190.7674,-57.6575 -274.06,-61.6021 -77.0454,-39.8101 -155.781,-82.4887 -244.5925,-82.9668 -20.5242,-15.6432 -125.9422,-31.2149 -117.2157,-4.3899 z m 35.2237,-581.4862 7.8304,13.3755 13.0532,8.3722 c 47.6162,-61.3857 100.9746,-127.2994 184.4684,-133.91 67.9755,-9.261 162.4752,-101.9583 56.746,-134.7959 -53.7372,-33.884 -166.8709,-119.2904 -176.3375,-1.9114 22.3304,102.4135 -106.3951,149.4739 -85.7605,248.8696 z m 319.085,-406.6284 c 20.1767,63.5466 77.2233,106.7856 133.596,141.5666 80.4524,75.9469 185.7512,112.7787 280.315,166.5578 27.3695,15.2245 55.3468,30.4569 84.0829,43.4301 -12.9957,-54.337 -26.9903,-108.3248 -27.6528,-165.5527 -43.6485,-139.7234 -227.9724,-87.9477 -331.4542,-154.1077 -46.2022,-10.6297 -92.4987,-21.4446 -138.8869,-31.8941 z"
             id="path5105-8"
             inkscape:connector-curvature="0" />
        </g>
        <g
           id="g5030">
          <path
             sodipodi:nodetypes="ccccccccccccccccccccccccccccccccccc"
             inkscape:connector-curvature="0"
             id="path4862"
             d="m 2445.4785,1061.0958 c -35.0685,47.4632 -96.7396,69.2347 -154.6344,62.2819 -69.6537,0.8799 -138.3475,-16.1663 -208.2098,-10.075 -68.5309,2.2666 -146.0651,14.4668 -192.2192,69.8417 -23.2744,24.6812 -23.0524,66.7971 5.9752,86.8643 37.7537,39.4271 97.4825,28.3091 145.2946,45.9044 93.3677,23.0969 185.9375,52.5336 281.5554,64.5196 46.8439,15.0441 93.1092,32.6188 128.6495,68.0929 10.7419,16.5834 79.0216,18.1338 52.1505,22.4538 -27.4043,7.5545 28.383,28.5317 38.8197,41.9394 25.0392,24.3546 57.1791,37.4361 83.9272,59.6334 54.0915,34.0703 112.8478,66.3828 176.9544,73.9244 76.4211,-6.6545 149.2527,24.6769 223.2551,39.9093 161.3393,43.2023 321.8893,92.2088 483.513,132.6941 21.407,-7.1985 68.7847,9.6724 58.1405,-27.2307 2.7783,-45.7965 -3.3205,-93.4274 4.9748,-138.084 26.64,-60.9002 49.4868,-124.3143 78.4552,-183.6713 l 84.8307,-86.598 c -10.1786,-26.1833 -13.1411,-58.2732 -27.7129,-80.8605 -33.6508,-13.769 -63.1916,-46.89 -102.0968,-35.9195 -32.3419,-0.1791 -50.0526,16.7969 -76.1782,-9.2186 -48.1192,-34.2079 -34.8309,-14.3022 -89.5932,-35.1729 -227.8617,-23.4459 -239.0403,-277.9691 -489.4642,-415.80057 -70.2391,-75.36781 -308.1588,-76.29143 -361.6048,-69.06373 -114.1507,0.67113 -229.3792,5.74568 -341.7976,24.81118 -45.5018,10.379 -64.768,58.5745 -107.124,75.39978 -49.0099,25.8193 -94.4577,58.47831 -139.337,91.38523 -50.6319,33.37331 -96.6922,74.82171 -131.3942,124.01721 -15.3968,23.1992 -50.6973,37.1978 -47.0321,68.9302 -16.0902,33.1473 30.1772,46.4796 55.5555,41.4632 46.588,4.8838 40.9281,-25.3133 124.6232,-46.2956 26.2179,-11.4757 50.8548,-10.0328 67.0457,-23.5112 45.5339,-21.7927 98.5523,-35.3932 134.7099,-71.0326 15.2151,-8.7104 46.0842,10.1212 68.5966,0.2108 56.8198,8.0101 130.5959,0.6937 171.3717,38.2574 z"
             style="fill:#fbe271;fill-opacity:1;stroke:none;stroke-width:1px;stroke-linecap:butt;stroke-linejoin:miter;stroke-opacity:1" />
          <path
             inkscape:connector-curvature="0"
             id="path4868"
             d="m 2215.5605,1020.2617 c -3.7952,0.068 -7.1979,0.7321 -10.0507,2.3653 -36.1576,35.6394 -89.1751,49.2405 -134.709,71.0332 -3.7864,6.877 -7.4491,13.8169 -11.0176,20.8027 7.6889,-0.5325 15.3264,-0.9113 22.8516,-1.1602 39.9772,-3.4856 79.5728,0.6035 119.1836,4.5762 20.3869,-27.9814 50.3475,-47.8084 66.8984,-78.8027 0.4564,-5.5878 2.3699,-10.9208 5.0195,-16.0918 -18.2417,7.7479 -41.8396,-3.0139 -58.1758,-2.7227 z m -191.8183,290.3613 c 14.1595,22.3252 46.0001,35.5921 68.8555,18.3868 -16.9603,-4.4794 -33.9222,-8.8928 -50.9122,-13.0957 -5.824,-2.1433 -11.8269,-3.8566 -17.9433,-5.2911 z"
             style="display:inline;fill:#dbd474;fill-opacity:1;stroke:none;stroke-width:1px;stroke-linecap:butt;stroke-linejoin:miter;stroke-opacity:1" />
          <path
             inkscape:connector-curvature="0"
             id="path4870"
             d="m 2274.8066,1022.9297 c -11.3008,15.0553 -19.232,32.723 -31.6347,47.0488 -12.8078,12.9267 -18.7653,30.0476 -23.9785,47.0488 -0.3685,0.8095 -0.7045,1.6324 -1.043,2.4532 24.175,2.3154 48.3749,4.2037 72.6934,3.8965 28.4264,3.4138 57.7569,-0.1124 84.4082,-10.1895 8.6636,-25.0758 15.3569,-50.8276 23.5273,-76.0801 -38.5663,-10.4227 -85.1556,-8.8029 -123.9727,-14.1777 z"
             style="display:inline;fill:#d5ce5f;fill-opacity:1;stroke:none;stroke-width:1px;stroke-linecap:butt;stroke-linejoin:miter;stroke-opacity:1" />
          <path
             inkscape:connector-curvature="0"
             id="path4874"
             d="m 2445.4785,1061.0958 c 8.3958,-6.7167 16.7917,-13.4333 25.1875,-20.15 7.6278,-17.3145 16.1486,-34.2489 23.1465,-51.82793 4.1969,-18.36662 12.0845,-35.57484 16.5677,-53.85746 5.1632,-16.29838 7.6986,-33.3061 12.9506,-49.56127 1.3785,-5.50284 7.3971,-14.79194 5.0056,-18.50387 -8.2547,-0.86072 -16.4775,-2.64511 -24.753,-2.90206 -15.4359,0.9077 -30.8764,1.76234 -46.2072,3.86076 -17.5416,2.40847 -35.2872,2.25316 -52.9372,3.29948 -2.1817,0.44997 2.8656,4.20478 3.594,5.98515 5.853,7.06889 11.0768,14.73482 17.3404,21.41411 9.0317,8.10525 17.8656,17.53253 20.2553,29.88479 3.4839,11.24824 2.5469,23.14575 3.8446,34.7206 0.6174,19.8644 0.6959,39.7405 0.4532,59.6096 1.0173,12.8035 -2.4895,25.4703 -4.448,38.0281 z"
             style="display:inline;fill:#f2dc79;fill-opacity:1;stroke:none;stroke-width:1px;stroke-linecap:butt;stroke-linejoin:miter;stroke-opacity:1" />
          <path
             id="path4920"
             style="display:inline;fill:#f0d45a;fill-opacity:1;stroke:none;stroke-width:1px;stroke-linecap:butt;stroke-linejoin:miter;stroke-opacity:1"
             d="m 2139.3105,1195.2109 c -0.6702,-0.1303 -1.3795,0.647 -2.0351,2.8125 -8.7207,22.0129 -13.9895,45.2592 -20.7363,67.8711 -3.7678,22.4775 -5.7367,45.852 -3.3672,68.5684 2.9422,0.7823 5.8874,1.5578 8.8301,2.3398 0.028,-7.4799 -1.2218,-16.7749 0.3671,-21.4414 4.7537,-35.4667 9.9803,-71.0046 18.2188,-105.8398 2.9951,-1.7938 1.1163,-13.845 -1.2774,-14.3106 z m 25.2833,64.0235 c -0.3636,0.012 -0.7471,0.053 -1.1543,0.1211 0.084,1.5378 0.5144,2.8419 1.3125,4.1562 -2.5539,20.9412 -7.694,41.429 -12.3497,61.8399 -0.4777,4.756 -1.0216,12.7764 -0.3496,19.3886 2.9604,0.7738 5.9209,1.5476 8.8828,2.3145 4.5767,-17.4096 0.3818,-36.2924 5.8907,-53.7442 -0.1952,-8.7204 9.0374,-34.4557 -2.2324,-34.0761 z m 48.2441,23.9687 c -8.4441,22.179 -8.7267,46.3236 -12.0664,69.5469 -0.2141,1.4118 -0.1816,2.8873 0.01,4.3027 2.4675,0.5957 4.9388,1.1726 7.4082,1.7578 0.056,-0.3288 0.1122,-0.6624 0.1622,-1.0234 5.3478,-20.7167 3.2525,-42.4357 4.8164,-63.623 0.012,-3.6555 -0.081,-7.3134 -0.3262,-10.961 z m -31.2422,-337.52537 c -0.8771,1.00227 -1.4192,2.26085 -1.6816,3.55665 -0.8764,16.35721 2.8121,33.28421 11.7597,47.1582 4.6084,6.29852 10.0638,12.00762 13.1582,19.33202 0.6149,2.2892 1.7824,4.1822 3.3047,5.7305 3.6762,-1.2832 8.0332,-1.4066 12.8262,-0.9434 -2.2383,-4.6714 -7.6247,-9.4511 -10.1133,-13.1152 -7.6585,-10.27616 -13.41,-21.967 -18.1699,-33.84767 -4.1361,-9.06112 -8.9778,-17.98222 -11.084,-27.8711 z m -187.2027,84.27717 c 0.5848,18.7623 15.1451,32.4864 21.8679,49.0623 7.8823,8.683 13.0529,27.9848 28.263,22.5565 7.3432,2.5721 28.54,-6.5907 12.995,-10.0143 -16.2028,-3.6851 -27.3903,-17.5852 -32.8105,-32.645 -6.2673,-11.9818 -13.3943,-25.415 -25.1463,-32.6884 -3.2926,-1.236 -5.4259,0.5012 -5.1691,3.7289 z m -25.6454,16.4864 c -1.4422,-12.1817 -11.2383,-21.3907 -14.2392,-33.0351 -7.4668,3.203 -3.3063,17.7852 -0.9687,24.9103 7.0152,16.5451 21.0797,28.5677 35.2325,38.9522 3.7791,4.3097 13.6083,15.4666 15.8784,3.9326 -3.9428,-12.3561 -20.4589,-13.7379 -24.8154,-25.9974 -2.8119,-3.7634 -6.3996,-7.5364 -11.0876,-8.7626 z"
             inkscape:connector-curvature="0" />
          <path
             id="path4922"
             style="display:inline;fill:#efd45c;fill-opacity:1;stroke:none;stroke-width:1px;stroke-linecap:butt;stroke-linejoin:miter;stroke-opacity:1"
             d="m 1968.4434,1168.8008 c -0.9794,-0.05 -1.7301,0.3622 -1.9864,1.7461 -17.1918,13.2369 -38.2113,23.1882 -47.7968,43.9511 -12.9927,20.4217 -17.0538,49.7194 -3.6954,70.2286 30.4587,18.0924 69.1127,17.4314 104.4512,24.9355 16.3011,-15.268 13.9661,-43.6957 15.3809,-64.6933 -1.4111,-33.9012 -23.7648,-69.387 -59.3867,-74.5801 -1.5488,0.8629 -4.8122,-1.479 -6.9668,-1.5879 z m -88.8868,-127.9043 c -3.0574,4.0061 -6.0467,8.063 -8.9492,12.1777 -12.8833,19.4121 -39.6876,32.3891 -45.9531,54.6973 9.1755,-0.874 18.3486,-2.1212 27.2324,-3.9063 8.534,-5.7655 11.2702,-16.6544 18.0059,-24.164 7.3422,-11.5987 9.1241,-25.3872 9.664,-38.8047 z"
             inkscape:connector-curvature="0" />
        </g>
      </g>
    </g>
  </g>
</svg>
